<svg width="166" height="72" viewBox="0 0 166 72" fill="none" xmlns="http://www.w3.org/2000/svg">
<path d="M10.2976 37.797V37.3918C10.2976 37.3289 10.329 37.2975 10.3919 37.2975H11.541C11.6039 37.2975 11.6353 37.3289 11.6353 37.3918V40.2838C11.6353 40.4725 11.6716 40.6031 11.7442 40.6745C11.8167 40.747 11.9304 40.7833 12.0877 40.7833H12.3804C12.6319 40.7833 12.7577 40.9744 12.7577 41.3578C12.7577 41.578 12.7275 41.7267 12.6682 41.8054C12.609 41.884 12.5122 41.9227 12.3804 41.9227H11.4007C11.0922 41.9227 10.8527 41.8743 10.6798 41.7763C10.5068 41.6796 10.3919 41.4957 10.3363 41.2248C10.1984 41.3385 10.0375 41.4232 9.85611 41.4788C9.67347 41.5356 9.48237 41.5635 9.28159 41.5635C9.03606 41.5635 8.80262 41.5284 8.58007 41.4594C8.35752 41.3905 8.16037 41.2841 7.99104 41.1389C7.8217 40.995 7.68745 40.8063 7.59069 40.5741C7.49272 40.3418 7.44434 40.0588 7.44434 39.7262C7.44434 39.3488 7.49876 39.0368 7.60883 38.7888C7.7189 38.5409 7.86283 38.3425 8.04184 38.195C8.22084 38.0474 8.42525 37.9434 8.65385 37.8841C8.88245 37.8248 9.11709 37.7946 9.35537 37.7946H10.2976V37.797ZM8.38534 36.6286C8.32244 36.6286 8.291 36.5972 8.291 36.5343V35.6114C8.291 35.5485 8.32244 35.5171 8.38534 35.5171H9.32755C9.39045 35.5171 9.42189 35.5485 9.42189 35.6114V36.5343C9.42189 36.5972 9.39045 36.6286 9.32755 36.6286H8.38534ZM9.52107 40.4253C9.75814 40.4253 9.94682 40.3576 10.0871 40.2233C10.2274 40.0878 10.2976 39.8762 10.2976 39.5871V38.9376H9.54889C9.31183 38.9376 9.12072 38.9944 8.978 39.1069C8.83407 39.2194 8.76271 39.4275 8.76271 39.7286C8.76271 39.9862 8.83407 40.1665 8.978 40.2705C9.12193 40.3745 9.30215 40.4265 9.52107 40.4265V40.4253ZM9.83676 36.6286C9.77386 36.6286 9.74241 36.5972 9.74241 36.5343V35.6114C9.74241 35.5485 9.77386 35.5171 9.83676 35.5171H10.7886C10.8515 35.5171 10.883 35.5485 10.883 35.6114V36.5343C10.883 36.5972 10.8515 36.6286 10.7886 36.6286H9.83676Z" fill="#36302B"/>
<path d="M13.5196 38.0514C13.5196 37.9885 13.5511 37.957 13.6128 37.957H14.7449C14.8078 37.957 14.838 37.9885 14.838 38.0514V40.2745C14.8501 40.4317 14.9178 40.5551 15.04 40.647C15.1622 40.7377 15.3339 40.7837 15.5541 40.7837H15.7706C15.8963 40.7837 15.9907 40.8272 16.0536 40.9155C16.1165 41.0038 16.1479 41.1477 16.1479 41.3485C16.1479 41.7319 16.0221 41.923 15.7706 41.923C15.519 41.923 15.3242 41.8952 15.1489 41.8384C14.9735 41.7815 14.8259 41.6533 14.7074 41.4525C14.607 41.6533 14.4594 41.7827 14.2635 41.8384C14.0676 41.8952 13.7978 41.923 13.4543 41.923H12.4843C12.3585 41.923 12.2642 41.8843 12.2013 41.8057C12.1384 41.7271 12.1069 41.5807 12.1069 41.3679C12.1069 41.155 12.1372 41.0038 12.1964 40.9155C12.2557 40.8272 12.3525 40.7837 12.4843 40.7837H13.0685C13.2693 40.7837 13.3951 40.7256 13.4459 40.6095C13.4967 40.4934 13.5209 40.2938 13.5209 40.0108V38.0514H13.5196ZM12.9258 43.8558C12.8629 43.8558 12.8314 43.8244 12.8314 43.7615V42.8386C12.8314 42.7757 12.8629 42.7443 12.9258 42.7443H13.868C13.9309 42.7443 13.9623 42.7757 13.9623 42.8386V43.7615C13.9623 43.8244 13.9309 43.8558 13.868 43.8558H12.9258ZM14.3772 43.8558C14.3143 43.8558 14.2829 43.8244 14.2829 43.7615V42.8386C14.2829 42.7757 14.3143 42.7443 14.3772 42.7443H15.3291C15.392 42.7443 15.4234 42.7757 15.4234 42.8386V43.7615C15.4234 43.8244 15.392 43.8558 15.3291 43.8558H14.3772Z" fill="#36302B"/>
<path d="M16.8458 38.0513C16.8458 37.9884 16.8773 37.957 16.939 37.957H18.0711C18.134 37.957 18.1642 37.9884 18.1642 38.0513V40.2744C18.1763 40.4317 18.244 40.555 18.3662 40.6469C18.4883 40.7377 18.6601 40.7836 18.8802 40.7836H19.0967C19.2225 40.7836 19.3169 40.8272 19.3798 40.9155C19.4426 41.0038 19.4741 41.1477 19.4741 41.3485C19.4741 41.7319 19.3483 41.923 19.0967 41.923C18.8451 41.923 18.6504 41.8952 18.475 41.8383C18.2997 41.7815 18.1521 41.6533 18.0336 41.4525C17.9332 41.6533 17.7856 41.7827 17.5897 41.8383C17.3937 41.8952 17.124 41.923 16.7805 41.923H15.8105C15.6847 41.923 15.5903 41.8843 15.5274 41.8057C15.4646 41.727 15.4331 41.5807 15.4331 41.3678C15.4331 41.1549 15.4633 41.0038 15.5226 40.9155C15.5819 40.8272 15.6786 40.7836 15.8105 40.7836H16.3947C16.5954 40.7836 16.7212 40.7256 16.772 40.6095C16.8228 40.4933 16.847 40.2938 16.847 40.0107V38.0513H16.8458ZM16.2991 37.0051C16.2362 37.0051 16.2048 36.9737 16.2048 36.9108V35.9879C16.2048 35.925 16.2362 35.8936 16.2991 35.8936H17.2413C17.3042 35.8936 17.3357 35.925 17.3357 35.9879V36.9108C17.3357 36.9737 17.3042 37.0051 17.2413 37.0051H16.2991ZM17.7505 37.0051C17.6876 37.0051 17.6562 36.9737 17.6562 36.9108V35.9879C17.6562 35.925 17.6876 35.8936 17.7505 35.8936H18.7024C18.7653 35.8936 18.7968 35.925 18.7968 35.9879V36.9108C18.7968 36.9737 18.7653 37.0051 18.7024 37.0051H17.7505Z" fill="#36302B"/>
<path d="M24.7887 41.9228C24.5431 41.9228 24.3448 41.8768 24.19 41.7861C24.0364 41.6954 23.9178 41.5745 23.8368 41.4233C23.7485 41.618 23.6154 41.7498 23.4364 41.8188C23.2574 41.8877 23.0143 41.9228 22.7059 41.9228H22.3382C22.0927 41.9228 21.8919 41.8768 21.7346 41.7861C21.5774 41.6954 21.4577 41.5745 21.3766 41.4233C21.2883 41.6241 21.1565 41.7583 20.9811 41.8236C20.8057 41.8901 20.5566 41.9228 20.2373 41.9228H19.1064C18.9806 41.9228 18.8862 41.8865 18.8233 41.8139C18.7605 41.7414 18.729 41.6023 18.729 41.3942C18.729 41.1741 18.7592 41.0169 18.8185 40.9237C18.8778 40.8294 18.9745 40.7822 19.1064 40.7822H19.7377C19.9204 40.7822 20.0365 40.7363 20.0861 40.6455C20.1357 40.5548 20.1611 40.3867 20.1611 40.1412V38.7285C20.1611 38.6656 20.1925 38.6341 20.2554 38.6341H21.4044C21.4673 38.6341 21.4988 38.6656 21.4988 38.7285V40.273C21.4988 40.4738 21.5617 40.6093 21.6875 40.6782C21.8133 40.7472 21.9512 40.7822 22.1023 40.7822C22.2221 40.7822 22.3176 40.7701 22.3902 40.7447C22.4628 40.7193 22.5148 40.6818 22.5462 40.6322C22.5777 40.5814 22.5982 40.5149 22.6079 40.429C22.6176 40.3444 22.6224 40.2392 22.6224 40.1134V38.7285C22.6224 38.6656 22.6539 38.6341 22.7168 38.6341H23.8658C23.9287 38.6341 23.9602 38.6656 23.9602 38.7285V40.2646C23.9602 40.4786 24.0243 40.6177 24.1537 40.6843C24.2819 40.7508 24.4282 40.7834 24.5915 40.7834C24.7113 40.7834 24.802 40.7713 24.8649 40.7459C24.9278 40.7205 24.9749 40.6818 25.0064 40.6286C25.0378 40.5754 25.056 40.5065 25.0632 40.4218C25.0693 40.3371 25.0729 40.2319 25.0729 40.1061V38.0523C25.0729 37.9895 25.1044 37.958 25.1673 37.958H26.3163C26.3792 37.958 26.4106 37.9895 26.4106 38.0523V40.2754C26.4227 40.4327 26.4905 40.556 26.6126 40.648C26.7348 40.7387 26.9065 40.7846 27.1267 40.7846H27.3432C27.469 40.7846 27.5633 40.8282 27.6262 40.9165C27.6891 41.0048 27.7205 41.1487 27.7205 41.3495C27.7205 41.7329 27.5947 41.924 27.3432 41.924C27.0916 41.924 26.8969 41.8962 26.7215 41.8393C26.5461 41.7825 26.3973 41.6543 26.2788 41.4535C26.1905 41.6361 26.0623 41.7595 25.893 41.826C25.7236 41.8926 25.5289 41.9252 25.3088 41.9252H24.7911L24.7887 41.9228Z" fill="#36302B"/>
<path d="M27.3422 41.923C27.2164 41.923 27.1221 41.8807 27.0592 41.796C26.9963 41.7114 26.9648 41.5686 26.9648 41.3678C26.9648 41.1671 26.9951 41.011 27.0543 40.9203C27.1136 40.8296 27.2104 40.7837 27.3422 40.7837H29.679C29.8302 40.7837 29.9523 40.7728 30.0467 40.751C30.141 40.7292 30.2148 40.6869 30.268 40.624C30.3212 40.5611 30.3587 40.4776 30.3805 40.3748C30.4023 40.2708 30.4132 40.1378 30.4132 39.9745C30.4132 39.8427 30.3974 39.7157 30.366 39.5935C30.3346 39.4713 30.2813 39.3613 30.2063 39.2633C30.1314 39.1665 30.0322 39.0879 29.91 39.0274C29.7879 38.9682 29.6355 38.9379 29.4528 38.9379C29.252 38.9379 29.073 38.9766 28.9158 39.0553C28.7586 39.1339 28.6146 39.2331 28.4828 39.3516C28.4392 39.3951 28.3945 39.3988 28.3509 39.3613L27.7946 38.6924C27.7377 38.6356 27.728 38.5884 27.7668 38.5509C27.9869 38.338 28.2385 38.159 28.5203 38.0139C28.8033 37.8699 29.1577 37.7974 29.5847 37.7974C29.9862 37.7974 30.3285 37.8566 30.6115 37.9764C30.8946 38.0961 31.1232 38.2558 31.2997 38.4566C31.4751 38.6573 31.6021 38.8932 31.6807 39.1629C31.7594 39.4326 31.7981 39.7193 31.7981 40.0205C31.7981 40.416 31.7618 40.7365 31.6892 40.982C31.6166 41.2275 31.5138 41.4199 31.3784 41.5614C31.2429 41.7029 31.0772 41.7984 30.8788 41.8492C30.6805 41.9 30.4567 41.9242 30.2051 41.9242H27.341H27.3422V41.923ZM29.0476 43.8353C28.9847 43.8353 28.9533 43.8038 28.9533 43.7409V42.8181C28.9533 42.7552 28.9847 42.7237 29.0476 42.7237H30.216C30.2789 42.7237 30.3104 42.7552 30.3104 42.8181V43.7409C30.3104 43.8038 30.2789 43.8353 30.216 43.8353H29.0476Z" fill="#36302B"/>
<path d="M33.56 43.8546C33.4971 43.8546 33.4656 43.8232 33.4656 43.7603V42.8084C33.4656 42.7455 33.4971 42.714 33.56 42.714H34.6437C34.7756 42.714 34.8929 42.7032 34.9969 42.6814C35.1009 42.6596 35.1868 42.6197 35.2557 42.5641C35.3247 42.5072 35.3779 42.4274 35.4154 42.3234C35.4529 42.2194 35.4722 42.0863 35.4722 41.923H34.5675C33.9519 41.923 33.479 41.7755 33.15 41.4803C32.8198 41.1852 32.6553 40.6796 32.6553 39.9636C32.6553 39.562 32.7133 39.2222 32.8294 38.9464C32.9456 38.6706 33.1004 38.4469 33.2927 38.2775C33.485 38.1082 33.7051 37.9848 33.9543 37.9098C34.2035 37.8349 34.4599 37.7974 34.7235 37.7974C34.9872 37.7974 35.2654 37.8324 35.517 37.9014C35.7686 37.9703 35.9887 38.0852 36.1774 38.2449C36.3661 38.4045 36.516 38.6223 36.6261 38.8944C36.7362 39.1677 36.7918 39.5052 36.7918 39.9068V40.7824H37.4329C37.6844 40.7824 37.8102 40.9711 37.8102 41.3473C37.8102 41.5856 37.78 41.7416 37.7207 41.8142C37.6615 41.8867 37.5647 41.923 37.4329 41.923H36.7918V42.102C36.7918 42.6923 36.6418 43.1325 36.3407 43.4216C36.0395 43.7107 35.5714 43.8546 34.9352 43.8546H33.56ZM34.7284 38.9367C34.4768 38.9367 34.2845 39.025 34.149 39.2004C34.0136 39.3758 33.947 39.6153 33.947 39.9164C33.947 40.2624 34.0208 40.4934 34.1684 40.6095C34.3159 40.7256 34.5095 40.7837 34.7477 40.7837H35.4734V39.8693C35.4734 39.2476 35.2255 38.9367 34.7296 38.9367H34.7284Z" fill="#36302B"/>
<path d="M38.2048 35.6105C38.2048 35.5476 38.2363 35.5161 38.2992 35.5161H39.4482C39.5111 35.5161 39.5426 35.5476 39.5426 35.6105V40.2743C39.5547 40.4376 39.6212 40.5634 39.7409 40.6517C39.8607 40.74 40.0324 40.7835 40.2586 40.7835H40.4751C40.6009 40.7835 40.6952 40.8271 40.7581 40.9154C40.821 41.0037 40.8525 41.1476 40.8525 41.3484C40.8525 41.7318 40.7267 41.9229 40.4751 41.9229C40.2235 41.9229 40.0288 41.8951 39.8534 41.8382C39.678 41.7814 39.5293 41.6532 39.4107 41.4524C39.3164 41.635 39.1797 41.7584 39.0007 41.8249C38.8217 41.8915 38.5786 41.9241 38.2702 41.9241H37.4223C37.2965 41.9241 37.2022 41.9024 37.1393 41.8576C37.0764 41.8141 37.0449 41.7258 37.0449 41.5939C37.0449 41.5189 37.0534 41.4343 37.0691 41.3399C37.0848 41.2456 37.1066 41.1573 37.1356 41.0762C37.1635 40.9952 37.2022 40.9251 37.2481 40.8694C37.2953 40.8126 37.3533 40.7848 37.4223 40.7848H37.7525C37.8589 40.7848 37.9436 40.7654 38.0065 40.7279C38.0694 40.6904 38.1153 40.6348 38.1432 40.5634C38.171 40.4908 38.1891 40.4013 38.1952 40.2949C38.2012 40.1885 38.2048 40.0651 38.2048 39.9272V35.6117V35.6105Z" fill="#36302B"/>
<path d="M40.4667 41.9229C40.3409 41.9229 40.2466 41.9011 40.1837 41.8564C40.1208 41.8128 40.0894 41.7246 40.0894 41.5927C40.0894 41.5177 40.0978 41.4331 40.1135 41.3387C40.1293 41.2444 40.151 41.1561 40.1801 41.075C40.2079 40.994 40.2466 40.9239 40.2926 40.8682C40.3397 40.8114 40.3978 40.7835 40.4667 40.7835H40.7969C40.9542 40.7835 41.0691 40.7473 41.1404 40.6747C41.213 40.6021 41.2493 40.4727 41.2493 40.284V35.6105C41.2493 35.5476 41.2807 35.5161 41.3436 35.5161H42.4927C42.5556 35.5161 42.587 35.5476 42.587 35.6105V40.7364C42.587 41.1452 42.5023 41.4452 42.333 41.6363C42.1637 41.8274 41.8806 41.9241 41.4851 41.9241H40.4667V41.9229Z" fill="#36302B"/>
<path d="M45.0361 41.8295C45.0361 41.8924 45.0047 41.9239 44.943 41.9239H43.8109C43.748 41.9239 43.7178 41.8924 43.7178 41.8295V35.6114C43.7178 35.5485 43.7492 35.5171 43.8109 35.5171H44.943C45.0059 35.5171 45.0361 35.5485 45.0361 35.6114V41.8295Z" fill="#36302B"/>
<path d="M53.9815 40.6745C54.0541 40.602 54.0904 40.4726 54.0904 40.2839V38.0511C54.0904 37.9882 54.1218 37.9568 54.1847 37.9568H55.3338C55.3967 37.9568 55.4281 37.9882 55.4281 38.0511V40.7362C55.4281 41.145 55.3434 41.445 55.1741 41.6361C55.0048 41.8272 54.7157 41.924 54.3069 41.924H49.4168C49.0213 41.924 48.7383 41.8284 48.5689 41.6361C48.3996 41.445 48.3149 41.145 48.3149 40.7362V38.6534C48.3149 38.5905 48.3464 38.5591 48.4093 38.5591H49.5583C49.6212 38.5591 49.6527 38.5905 49.6527 38.6534V40.2839C49.6527 40.4726 49.689 40.6032 49.7615 40.6745C49.8341 40.7471 49.9478 40.7834 50.105 40.7834H53.6283C53.7916 40.7834 53.9089 40.7471 53.9815 40.6745ZM50.6602 37.5613C50.5973 37.5613 50.5659 37.5298 50.5659 37.4669V36.5441C50.5659 36.4812 50.5973 36.4497 50.6602 36.4497H51.6024C51.6653 36.4497 51.6967 36.4812 51.6967 36.5441V37.4669C51.6967 37.5298 51.6653 37.5613 51.6024 37.5613H50.6602ZM52.1116 37.5613C52.0487 37.5613 52.0173 37.5298 52.0173 37.4669V36.5441C52.0173 36.4812 52.0487 36.4497 52.1116 36.4497H53.0635C53.1264 36.4497 53.1578 36.4812 53.1578 36.5441V37.4669C53.1578 37.5298 53.1264 37.5613 53.0635 37.5613H52.1116Z" fill="#36302B"/>
<path d="M56.4636 35.6105C56.4636 35.5476 56.4951 35.5161 56.5567 35.5161H57.6888C57.7517 35.5161 57.782 35.5476 57.782 35.6105V40.284C57.782 40.4727 57.8183 40.6033 57.8908 40.6747C57.9634 40.7473 58.0771 40.7835 58.2343 40.7835H58.4883C58.6141 40.7835 58.7085 40.8295 58.7714 40.9202C58.8343 41.0109 58.8657 41.1633 58.8657 41.3774C58.8657 41.6036 58.8355 41.7512 58.7762 41.8201C58.7169 41.889 58.6202 41.9241 58.4883 41.9241H57.557C57.1639 41.9241 56.8833 41.8286 56.7152 41.6363C56.5471 41.4452 56.4624 41.1452 56.4624 40.7364V35.6105H56.4636Z" fill="#36302B"/>
<path d="M61.4332 41.9893C61.0994 41.9893 60.7922 41.947 60.5128 41.8623C60.2322 41.7776 59.9975 41.6289 59.8089 41.4148C59.7206 41.5406 59.619 41.6361 59.5016 41.7027C59.3855 41.7692 59.267 41.8188 59.1485 41.8538C59.0287 41.8889 58.9126 41.9083 58.8001 41.9155C58.6876 41.9216 58.586 41.9252 58.499 41.9252C58.3732 41.9252 58.2788 41.8841 58.2159 41.803C58.153 41.722 58.1216 41.5769 58.1216 41.37C58.1216 41.1499 58.1518 40.9975 58.2111 40.9128C58.2704 40.8282 58.3671 40.7858 58.499 40.7858H58.7723C58.9102 40.7858 59.0396 40.7266 59.1581 40.6068C59.2779 40.4871 59.3432 40.2645 59.3565 39.938V39.7493C59.3565 39.3792 59.4146 39.0683 59.5307 38.8167C59.6468 38.5652 59.8016 38.3644 59.9939 38.2132C60.1862 38.062 60.4064 37.9556 60.6555 37.8927C60.9047 37.8298 61.1635 37.7983 61.4344 37.7983C61.7054 37.7983 61.9763 37.8334 62.2279 37.9024C62.4795 37.9713 62.702 38.0874 62.8931 38.2507C63.0854 38.414 63.2378 38.6317 63.3515 38.905C63.4652 39.1784 63.5221 39.5219 63.5221 39.9368C63.5221 40.3202 63.4688 40.6431 63.3612 40.9068C63.2548 41.1705 63.1072 41.3821 62.9221 41.543C62.7359 41.7027 62.5157 41.8176 62.2605 41.8865C62.0053 41.9554 61.7296 41.9905 61.4344 41.9905H61.4332V41.9893ZM61.4284 38.9365C60.9071 38.9365 60.6458 39.2534 60.6458 39.8884C60.6458 40.2464 60.7124 40.4956 60.8442 40.6371C60.976 40.7786 61.1708 40.8487 61.4284 40.8487C61.686 40.8487 61.8868 40.7786 62.0126 40.6371C62.1384 40.4956 62.2013 40.2464 62.2013 39.8884C62.2013 39.2546 61.9436 38.9365 61.4284 38.9365Z" fill="#36302B"/>
<path d="M66.0742 40.7834C66.2314 40.7834 66.3572 40.7725 66.4516 40.7507C66.5459 40.729 66.6161 40.6927 66.6632 40.6419C66.7104 40.5911 66.7419 40.5258 66.7576 40.4435C66.7733 40.3625 66.7806 40.2609 66.7806 40.1424V39.6332C66.7806 39.3876 66.7104 39.211 66.5689 39.101C66.4274 38.9909 66.2157 38.9365 65.9327 38.9365H64.849C64.7861 38.9365 64.7546 38.905 64.7546 38.8421V37.8902C64.7546 37.8273 64.7861 37.7959 64.849 37.7959H66.3282C66.9124 37.7959 67.3636 37.9229 67.6805 38.1769C67.9973 38.4309 68.1558 38.8699 68.1558 39.4916V40.2742C68.1679 40.4314 68.2356 40.5548 68.3578 40.6467C68.4799 40.7374 68.6517 40.7834 68.8718 40.7834H69.0786C69.2044 40.7834 69.2988 40.8269 69.3617 40.9152C69.4246 41.0035 69.456 41.1475 69.456 41.3482C69.456 41.7317 69.3302 41.9228 69.0786 41.9228C68.8271 41.9228 68.5961 41.8889 68.4049 41.8187C68.2138 41.7498 68.0578 41.6059 67.9381 41.3857C67.8256 41.5865 67.6696 41.7268 67.4712 41.8054C67.2728 41.8841 67.0273 41.9228 66.7322 41.9228H64.4523C64.3894 41.9228 64.3579 41.8913 64.3579 41.8284V40.8765C64.3579 40.8136 64.3894 40.7822 64.4523 40.7822H66.0742V40.7834Z" fill="#36302B"/>
<path d="M69.5033 38.551C69.7234 38.3308 69.9726 38.1506 70.252 38.0091C70.5314 37.8676 70.8725 37.7974 71.274 37.7974C71.6756 37.7974 72.0385 37.8567 72.3251 37.9764C72.6106 38.0962 72.8428 38.2607 73.0218 38.4711C73.2008 38.6816 73.3314 38.9295 73.4125 39.215C73.4935 39.5004 73.5346 39.8101 73.5346 40.1427V40.2939C73.554 40.4451 73.6205 40.5636 73.7366 40.6519C73.8527 40.7402 74.0209 40.7837 74.241 40.7837H74.4575C74.5833 40.7837 74.6776 40.8273 74.7405 40.9155C74.8034 41.0038 74.8349 41.1478 74.8349 41.3486C74.8349 41.732 74.7091 41.9231 74.4575 41.9231C74.2059 41.9231 73.964 41.8868 73.7693 41.8142C73.5745 41.7416 73.4149 41.5868 73.2891 41.3473C73.1633 41.5735 72.9855 41.7259 72.7569 41.8045C72.5271 41.8832 72.2562 41.9219 71.9417 41.9219H69.0776C68.9518 41.9219 68.8574 41.8795 68.7945 41.7949C68.7316 41.7102 68.7002 41.5675 68.7002 41.3667C68.7002 41.1659 68.728 41.0184 68.7849 40.924C68.8417 40.8297 68.9385 40.7825 69.0764 40.7825H71.4131C71.5643 40.7825 71.6865 40.7716 71.7808 40.7498C71.8752 40.7281 71.949 40.6906 72.0022 40.6362C72.0554 40.5829 72.0929 40.5104 72.1147 40.4196C72.1364 40.3289 72.1473 40.214 72.1473 40.0761C72.1473 39.9189 72.1316 39.7713 72.1001 39.6335C72.0687 39.4956 72.0155 39.3746 71.9405 39.2706C71.8655 39.1666 71.7663 39.0856 71.6442 39.0251C71.522 38.9658 71.3696 38.9356 71.187 38.9356C70.9862 38.9356 70.8072 38.9743 70.6499 39.0529C70.4927 39.1315 70.3488 39.2307 70.2169 39.3492C70.1734 39.3928 70.1286 39.3964 70.0851 39.3589L69.5287 38.69C69.4719 38.6332 69.4622 38.586 69.5009 38.5485L69.5033 38.551ZM70.737 37.0149C70.6741 37.0149 70.6427 36.9834 70.6427 36.9205V35.9977C70.6427 35.9348 70.6741 35.9033 70.737 35.9033H71.9054C71.9683 35.9033 71.9998 35.9348 71.9998 35.9977V36.9205C71.9998 36.9834 71.9683 37.0149 71.9054 37.0149H70.737Z" fill="#36302B"/>
<path d="M74.4599 41.9229C74.3341 41.9229 74.2398 41.9011 74.1769 41.8564C74.114 41.8128 74.0825 41.7246 74.0825 41.5927C74.0825 41.5177 74.091 41.4331 74.1067 41.3387C74.1224 41.2444 74.1442 41.1561 74.1732 41.075C74.2011 40.994 74.2398 40.9239 74.2857 40.8682C74.3329 40.8114 74.3909 40.7835 74.4599 40.7835H74.7901C74.9473 40.7835 75.0622 40.7473 75.1336 40.6747C75.2062 40.6021 75.2424 40.4727 75.2424 40.284V35.6105C75.2424 35.5476 75.2739 35.5161 75.3368 35.5161H76.4858C76.5487 35.5161 76.5802 35.5476 76.5802 35.6105V40.7364C76.5802 41.1452 76.4955 41.4452 76.3262 41.6363C76.1568 41.8274 75.8738 41.9241 75.4783 41.9241H74.4599V41.9229Z" fill="#36302B"/>
<path d="M79.0293 41.8295C79.0293 41.8924 78.9979 41.9239 78.9362 41.9239H77.8041C77.7412 41.9239 77.7109 41.8924 77.7109 41.8295V35.6114C77.7109 35.5485 77.7424 35.5171 77.8041 35.5171H78.9362C78.9991 35.5171 79.0293 35.5485 79.0293 35.6114V41.8295Z" fill="#36302B"/>
<path d="M80.9225 43.8546C80.8597 43.8546 80.8282 43.8231 80.8282 43.7602V42.8084C80.8282 42.7455 80.8597 42.714 80.9225 42.714H82.0063C82.1321 42.714 82.2445 42.7055 82.3449 42.691C82.4453 42.6753 82.5312 42.639 82.6038 42.5822C82.6763 42.5253 82.732 42.4455 82.7731 42.3415C82.8142 42.2375 82.8348 42.0984 82.8348 41.9218H82.4393C82.0619 41.9218 81.7245 41.9 81.4269 41.8553C81.1282 41.8117 80.8742 41.7186 80.6637 41.5771C80.4533 41.4356 80.2936 41.2384 80.1835 40.9832C80.0735 40.7292 80.019 40.3881 80.019 39.9612C80.019 39.5596 80.0771 39.2197 80.1932 38.944C80.3093 38.6682 80.4641 38.4444 80.6565 38.2751C80.8488 38.1058 81.0689 37.9824 81.3181 37.9074C81.5672 37.8324 81.8236 37.7949 82.0873 37.7949C82.351 37.7949 82.6292 37.83 82.8808 37.8989C83.1323 37.9679 83.3525 38.0828 83.5411 38.2424C83.7298 38.4021 83.8798 38.6198 83.9899 38.8919C84.0999 39.1653 84.1556 39.5028 84.1556 39.9043V42.0996C84.1556 42.6898 84.0056 43.1301 83.7044 43.4192C83.4033 43.7082 82.9352 43.8522 82.299 43.8522H80.9238V43.8546H80.9225ZM82.0909 38.9367C81.8333 38.9367 81.6386 39.025 81.5067 39.2004C81.3749 39.3758 81.3084 39.6152 81.3084 39.9164C81.3084 40.2623 81.3822 40.4933 81.5297 40.6095C81.6773 40.7256 81.8708 40.7836 82.1091 40.7836H82.8348V39.8692C82.8348 39.2475 82.5868 38.9367 82.0909 38.9367Z" fill="#36302B"/>
<path d="M92.0873 41.7161C92.0873 42.1116 92.0256 42.4491 91.9035 42.7285C91.7813 43.0079 91.6132 43.2377 91.4003 43.4167C91.1874 43.5957 90.9347 43.7275 90.6432 43.8122C90.3517 43.8969 90.0396 43.9392 89.7082 43.9392C89.3768 43.9392 89.0732 43.8969 88.7817 43.8122C88.4902 43.7275 88.235 43.5957 88.0149 43.4167C87.796 43.2377 87.6218 43.0055 87.4936 42.72C87.3654 42.4346 87.3013 42.0935 87.3013 41.698C87.3013 41.3835 87.3472 41.0654 87.4379 40.7412C87.5287 40.4183 87.6557 40.1147 87.8189 39.8317C87.8443 39.7942 87.8915 39.7845 87.9605 39.8039L88.9777 40.1341C89.0091 40.1462 89.026 40.1643 89.0297 40.1861C89.0333 40.2078 89.0285 40.232 89.0152 40.2562C88.9269 40.4316 88.8458 40.63 88.7696 40.8501C88.6946 41.0702 88.6571 41.3182 88.6571 41.5939C88.6571 41.8141 88.6886 41.9991 88.7515 42.1503C88.8144 42.3015 88.8978 42.4237 89.0006 42.518C89.1047 42.6124 89.2208 42.6801 89.349 42.7212C89.4772 42.7623 89.6078 42.7829 89.7397 42.7829C90.0602 42.7829 90.3105 42.6922 90.4932 42.5095C90.6758 42.3269 90.7665 42.0451 90.7665 41.6617V35.6129C90.7665 35.55 90.798 35.5186 90.8597 35.5186H91.9918C92.0547 35.5186 92.0849 35.55 92.0849 35.6129V40.2768C92.097 40.434 92.1647 40.5574 92.2869 40.6493C92.4091 40.7412 92.5808 40.786 92.8009 40.786H93.0174C93.1432 40.786 93.2376 40.8295 93.3005 40.9178C93.3634 41.0061 93.3948 41.1501 93.3948 41.3508C93.3948 41.7343 93.269 41.9254 93.0174 41.9254C92.8167 41.9254 92.6401 41.9084 92.4901 41.8733C92.3389 41.8395 92.2046 41.7584 92.0849 41.6327V41.7173H92.0873V41.7161Z" fill="#36302B"/>
<path d="M95.6722 37.7971C95.9915 37.7971 96.2806 37.8334 96.537 37.906C96.7934 37.9785 97.0136 38.0813 97.195 38.2168C97.3764 38.3523 97.5167 38.5204 97.6135 38.7212C97.7103 38.9219 97.7598 39.1542 97.7598 39.4178C97.7598 39.713 97.6909 39.9791 97.5542 40.2137C97.4176 40.4496 97.2422 40.6419 97.0305 40.7931C97.0813 40.787 97.1321 40.7834 97.1865 40.7834H98.3029C98.4287 40.7834 98.5231 40.8233 98.5859 40.9007C98.6488 40.9793 98.6803 41.1281 98.6803 41.3482C98.6803 41.5684 98.6501 41.7111 98.5908 41.7958C98.5315 41.8804 98.4348 41.9228 98.3029 41.9228H96.8987C96.6725 41.9228 96.4584 41.9131 96.2576 41.8949C96.0569 41.8756 95.8645 41.8103 95.6831 41.6966C95.4751 41.8103 95.2537 41.8756 95.0191 41.8949C94.7832 41.9143 94.5752 41.9228 94.3926 41.9228H93.0258C92.894 41.9228 92.7984 41.8792 92.7379 41.7909C92.6787 41.7026 92.6484 41.5526 92.6484 41.3386C92.6484 41.1378 92.6787 40.9951 92.7379 40.9092C92.7972 40.8245 92.894 40.7822 93.0258 40.7822H94.3067C94.095 40.6382 93.9208 40.4484 93.7878 40.2125C93.6535 39.9766 93.587 39.7118 93.587 39.4166C93.587 39.153 93.6354 38.9207 93.7334 38.72C93.8301 38.5192 93.9704 38.3511 94.1519 38.2156C94.3333 38.0801 94.5534 37.9773 94.8098 37.9047C95.0663 37.8322 95.3553 37.7959 95.6746 37.7959H95.6722V37.7971ZM94.499 37.0061C94.4361 37.0061 94.4047 36.9746 94.4047 36.9117V35.9889C94.4047 35.926 94.4361 35.8945 94.499 35.8945H95.4412C95.5041 35.8945 95.5355 35.926 95.5355 35.9889V36.9117C95.5355 36.9746 95.5041 37.0061 95.4412 37.0061H94.499ZM95.6722 38.7308C95.4702 38.7308 95.2912 38.7937 95.1364 38.9195C94.9816 39.0453 94.9042 39.2461 94.9042 39.5231C94.9042 39.8001 94.9804 40.0432 95.1316 40.2161C95.2828 40.3891 95.463 40.5258 95.6722 40.6262C95.8803 40.5258 96.0605 40.3891 96.2129 40.2161C96.3641 40.0432 96.4403 39.8121 96.4403 39.5231C96.4403 39.234 96.3616 39.0453 96.2032 38.9195C96.0448 38.7937 95.8682 38.7308 95.6722 38.7308ZM95.9504 37.0061C95.8875 37.0061 95.8561 36.9746 95.8561 36.9117V35.9889C95.8561 35.926 95.8875 35.8945 95.9504 35.8945H96.9023C96.9652 35.8945 96.9966 35.926 96.9966 35.9889V36.9117C96.9966 36.9746 96.9652 37.0061 96.9023 37.0061H95.9504Z" fill="#36302B"/>
<path d="M100.322 41.4525C100.215 41.6472 100.068 41.7742 99.879 41.8335C99.6903 41.8927 99.4266 41.923 99.0879 41.923H98.3344C98.2086 41.923 98.1143 41.9024 98.0514 41.8613C97.9885 41.8202 97.957 41.7307 97.957 41.5928C97.957 41.5118 97.9631 41.4235 97.9764 41.3291C97.9885 41.2348 98.0115 41.1465 98.0429 41.0654C98.0743 40.9844 98.1155 40.9167 98.1651 40.8622C98.2159 40.809 98.2775 40.7824 98.3537 40.7824H98.6646C98.8593 40.7824 98.9839 40.728 99.0371 40.6179C99.0903 40.5079 99.117 40.3119 99.117 40.0289V38.0501C99.117 38.0005 99.1629 37.9715 99.2536 37.9655C99.3443 37.9594 99.4242 37.9558 99.4943 37.9558H100.362C100.424 37.9558 100.456 37.9872 100.456 38.0501V40.2732C100.468 40.4304 100.536 40.5538 100.659 40.6457C100.781 40.7364 100.953 40.7824 101.173 40.7824H101.39C101.515 40.7824 101.61 40.826 101.673 40.9142C101.736 41.0025 101.767 41.1465 101.767 41.3473C101.767 41.7307 101.641 41.9218 101.39 41.9218C101.138 41.9218 100.943 41.894 100.768 41.8371C100.593 41.7803 100.444 41.6521 100.325 41.4513H100.322V41.4525ZM99.2004 37.0051C99.1375 37.0051 99.1061 36.9737 99.1061 36.9108V35.9879C99.1061 35.925 99.1375 35.8936 99.2004 35.8936H100.369C100.432 35.8936 100.463 35.925 100.463 35.9879V36.9108C100.463 36.9737 100.432 37.0051 100.369 37.0051H99.2004Z" fill="#36302B"/>
<path d="M101.349 41.9229C101.223 41.9229 101.128 41.9011 101.066 41.8564C101.003 41.8128 100.971 41.7246 100.971 41.5927C100.971 41.5177 100.98 41.4331 100.995 41.3387C101.011 41.2444 101.033 41.1561 101.062 41.075C101.09 40.994 101.128 40.9239 101.174 40.8682C101.222 40.8114 101.28 40.7835 101.349 40.7835H101.679C101.836 40.7835 101.951 40.7473 102.022 40.6747C102.095 40.6021 102.131 40.4727 102.131 40.284V35.6105C102.131 35.5476 102.163 35.5161 102.225 35.5161H103.374C103.437 35.5161 103.469 35.5476 103.469 35.6105V40.7364C103.469 41.1452 103.384 41.4452 103.215 41.6363C103.046 41.8274 102.762 41.9241 102.367 41.9241H101.349V41.9229Z" fill="#36302B"/>
<path d="M105.918 41.8295C105.918 41.8924 105.887 41.9239 105.825 41.9239H104.693C104.63 41.9239 104.6 41.8924 104.6 41.8295V35.6114C104.6 35.5485 104.631 35.5171 104.693 35.5171H105.825C105.888 35.5171 105.918 35.5485 105.918 35.6114V41.8295Z" fill="#36302B"/>
<path d="M111.199 41.9895C110.903 41.9895 110.628 41.9544 110.373 41.8855C110.118 41.8165 109.898 41.7016 109.711 41.542C109.525 41.3823 109.379 41.1695 109.272 40.9058C109.166 40.6421 109.111 40.318 109.111 39.9358C109.111 39.5209 109.168 39.1774 109.281 38.904C109.394 38.6307 109.547 38.413 109.739 38.2497C109.931 38.0864 110.153 37.9703 110.406 37.9013C110.657 37.8324 110.922 37.7973 111.199 37.7973C111.476 37.7973 111.741 37.8324 111.992 37.9013C112.244 37.9703 112.467 38.0864 112.658 38.2497C112.85 38.413 113.002 38.6307 113.116 38.904C113.23 39.1774 113.287 39.5209 113.287 39.9358C113.287 40.3192 113.233 40.6421 113.126 40.9058C113.019 41.1695 112.873 41.3811 112.687 41.542C112.5 41.7016 112.28 41.8165 112.025 41.8855C111.77 41.9544 111.494 41.9895 111.199 41.9895ZM109.998 37.0051C109.935 37.0051 109.904 36.9737 109.904 36.9108V35.9879C109.904 35.925 109.935 35.8936 109.998 35.8936H110.94C111.003 35.8936 111.034 35.925 111.034 35.9879V36.9108C111.034 36.9737 111.003 37.0051 110.94 37.0051H109.998ZM111.199 38.9367C110.687 38.9367 110.431 39.2536 110.431 39.8886C110.431 40.2466 110.496 40.4958 110.628 40.6373C110.759 40.7788 110.95 40.8489 111.199 40.8489C111.461 40.8489 111.655 40.7788 111.78 40.6373C111.904 40.4958 111.967 40.2466 111.967 39.8886C111.967 39.2548 111.711 38.9367 111.199 38.9367ZM111.448 37.0051C111.385 37.0051 111.354 36.9737 111.354 36.9108V35.9879C111.354 35.925 111.385 35.8936 111.448 35.8936H112.4C112.463 35.8936 112.494 35.925 112.494 35.9879V36.9108C112.494 36.9737 112.463 37.0051 112.4 37.0051H111.448Z" fill="#36302B"/>
<path d="M113.842 43.8546C113.779 43.8546 113.748 43.8232 113.748 43.7603V42.8084C113.748 42.7455 113.779 42.714 113.842 42.714H114.049C114.306 42.714 114.49 42.6475 114.6 42.5157C114.71 42.3838 114.765 42.1831 114.765 41.9121V38.0489C114.765 37.986 114.796 37.9546 114.859 37.9546H116.008C116.071 37.9546 116.102 37.986 116.102 38.0489V41.9593C116.102 42.6064 115.951 43.0841 115.65 43.3914C115.349 43.6986 114.891 43.8534 114.275 43.8534H113.842V43.8546Z" fill="#36302B"/>
<path d="M118.525 41.8295C118.525 41.8924 118.493 41.9239 118.432 41.9239H117.3C117.237 41.9239 117.207 41.8924 117.207 41.8295V35.6114C117.207 35.5485 117.238 35.5171 117.3 35.5171H118.432C118.495 35.5171 118.525 35.5485 118.525 35.6114V41.8295Z" fill="#36302B"/>
<path d="M119.212 43.8546C119.149 43.8546 119.118 43.8231 119.118 43.7602V42.8083C119.118 42.7455 119.149 42.714 119.212 42.714H119.419C119.676 42.714 119.86 42.6475 119.97 42.5156C120.08 42.3838 120.135 42.183 120.135 41.9121V38.0489C120.135 37.986 120.166 37.9546 120.229 37.9546H121.378C121.441 37.9546 121.473 37.986 121.473 38.0489V41.9593C121.473 42.6064 121.321 43.0841 121.02 43.3913C120.719 43.6986 120.261 43.8534 119.645 43.8534H119.212V43.8546ZM120.22 37.0051C120.157 37.0051 120.125 36.9737 120.125 36.9108V35.9879C120.125 35.925 120.157 35.8936 120.22 35.8936H121.388C121.451 35.8936 121.482 35.925 121.482 35.9879V36.9108C121.482 36.9737 121.451 37.0051 121.388 37.0051H120.22Z" fill="#36302B"/>
<path d="M123.329 43.8546C123.266 43.8546 123.235 43.8231 123.235 43.7602V42.8084C123.235 42.7455 123.266 42.714 123.329 42.714H124.413C124.539 42.714 124.651 42.7055 124.752 42.691C124.852 42.6753 124.938 42.639 125.011 42.5822C125.083 42.5253 125.139 42.4455 125.18 42.3415C125.221 42.2375 125.242 42.0984 125.242 41.9218H124.846C124.469 41.9218 124.131 41.9 123.834 41.8553C123.535 41.8117 123.281 41.7186 123.07 41.5771C122.86 41.4356 122.7 41.2384 122.59 40.9832C122.48 40.7292 122.426 40.3881 122.426 39.9612C122.426 39.5596 122.484 39.2197 122.6 38.944C122.716 38.6682 122.871 38.4444 123.063 38.2751C123.256 38.1058 123.476 37.9824 123.725 37.9074C123.974 37.8324 124.23 37.7949 124.494 37.7949C124.758 37.7949 125.036 37.83 125.287 37.8989C125.539 37.9679 125.759 38.0828 125.948 38.2424C126.137 38.4021 126.287 38.6198 126.397 38.8919C126.507 39.1653 126.562 39.5028 126.562 39.9043V42.0996C126.562 42.6898 126.412 43.1301 126.111 43.4192C125.81 43.7082 125.342 43.8522 124.706 43.8522H123.33V43.8546H123.329ZM124.498 38.9367C124.24 38.9367 124.045 39.025 123.913 39.2004C123.782 39.3758 123.715 39.6152 123.715 39.9164C123.715 40.2623 123.789 40.4933 123.936 40.6095C124.084 40.7256 124.278 40.7836 124.516 40.7836H125.242V39.8692C125.242 39.2475 124.994 38.9367 124.498 38.9367Z" fill="#36302B"/>
<path d="M7.47803 46.0278C7.47803 45.9891 7.49738 45.9697 7.53608 45.9697H8.22067C8.26663 45.9697 8.29687 45.9891 8.31259 46.0278L9.30318 48.2618H9.32617L10.2998 46.0278C10.3155 45.9891 10.3458 45.9697 10.3917 45.9697H11.0654C11.1042 45.9697 11.1235 45.9891 11.1235 46.0278V49.8281C11.1235 49.8668 11.1042 49.8861 11.0654 49.8861H10.4147C10.376 49.8861 10.3567 49.8668 10.3567 49.8281V47.6231H10.3337L9.60798 49.2753C9.585 49.3249 9.54872 49.3503 9.49913 49.3503H9.10241C9.05282 49.3503 9.01653 49.3249 8.99355 49.2753L8.26784 47.6231H8.24486V49.8281C8.24486 49.8668 8.22551 49.8861 8.1868 49.8861H7.53608C7.49738 49.8861 7.47803 49.8668 7.47803 49.8281V46.0278Z" fill="#36302B"/>
<path d="M12.165 46.6556C12.1263 46.6556 12.1069 46.6362 12.1069 46.5987V46.0339C12.1069 45.9964 12.1263 45.9771 12.165 45.9771H12.8556C12.8943 45.9771 12.9137 45.9964 12.9137 46.0339V46.5987C12.9137 46.6374 12.8943 46.6556 12.8556 46.6556H12.165ZM12.165 49.8862C12.1263 49.8862 12.1069 49.8668 12.1069 49.8281V47.1563C12.1069 47.1176 12.1263 47.0983 12.165 47.0983H12.8556C12.8943 47.0983 12.9137 47.1176 12.9137 47.1563V49.8281C12.9137 49.8668 12.8943 49.8862 12.8556 49.8862H12.165Z" fill="#36302B"/>
<path d="M15.6192 49.8851C15.5805 49.8851 15.5612 49.8657 15.5612 49.827V48.2268C15.5612 48.0732 15.5261 47.9498 15.4547 47.8579C15.3834 47.766 15.2757 47.72 15.1294 47.72C14.9915 47.72 14.8838 47.766 14.8064 47.8579C14.729 47.9498 14.6915 48.0732 14.6915 48.2268V49.827C14.6915 49.8657 14.6722 49.8851 14.6335 49.8851H13.9428C13.9041 49.8851 13.8848 49.8657 13.8848 49.827V47.1552C13.8848 47.1165 13.9041 47.0971 13.9428 47.0971H14.6335C14.6722 47.0971 14.6915 47.1165 14.6915 47.1552V47.3535H14.6976C14.7629 47.2665 14.8536 47.1915 14.9709 47.131C15.0882 47.0705 15.237 47.0391 15.4172 47.0391C15.5708 47.0391 15.7075 47.0645 15.826 47.1141C15.9446 47.1636 16.045 47.235 16.126 47.3269C16.207 47.4189 16.2675 47.5277 16.3074 47.6547C16.3473 47.7817 16.3679 47.9208 16.3679 48.0744V49.827C16.3679 49.8657 16.3485 49.8851 16.3098 49.8851H15.6192Z" fill="#36302B"/>
<path d="M17.3754 46.6556C17.3367 46.6556 17.3174 46.6362 17.3174 46.5987V46.0339C17.3174 45.9964 17.3367 45.9771 17.3754 45.9771H18.0661C18.1048 45.9771 18.1241 45.9964 18.1241 46.0339V46.5987C18.1241 46.6374 18.1048 46.6556 18.0661 46.6556H17.3754ZM17.3754 49.8862C17.3367 49.8862 17.3174 49.8668 17.3174 49.8281V47.1563C17.3174 47.1176 17.3367 47.0983 17.3754 47.0983H18.0661C18.1048 47.0983 18.1241 47.1176 18.1241 47.1563V49.8281C18.1241 49.8668 18.1048 49.8862 18.0661 49.8862H17.3754Z" fill="#36302B"/>
<path d="M20.1911 49.9494C19.8996 49.9494 19.6492 49.9058 19.44 49.8199C19.2307 49.7341 19.059 49.6325 18.9247 49.5176C18.8981 49.491 18.8981 49.4644 18.9247 49.4365L19.2985 49.0156C19.3215 48.9926 19.3481 48.9926 19.3795 49.0156C19.5029 49.1112 19.6384 49.1862 19.7883 49.2406C19.9383 49.295 20.0859 49.3216 20.2322 49.3216C20.3786 49.3216 20.4862 49.2962 20.5576 49.2466C20.6289 49.197 20.664 49.1329 20.664 49.0567C20.664 48.9914 20.6386 48.9382 20.5866 48.8983C20.5346 48.8584 20.4282 48.8306 20.2673 48.8148L19.9565 48.7798C19.6613 48.7495 19.4352 48.6624 19.2803 48.5209C19.1243 48.3794 19.0469 48.1811 19.0469 47.9283C19.0469 47.6513 19.1461 47.4336 19.3469 47.2751C19.5464 47.1155 19.8283 47.0356 20.1935 47.0356C20.4318 47.0356 20.6459 47.0683 20.8382 47.1336C21.0305 47.1989 21.1914 47.2812 21.322 47.3816C21.3486 47.4082 21.351 47.4372 21.328 47.4674L21.0051 47.8642C20.9821 47.8908 20.9555 47.8944 20.9241 47.875C20.8285 47.8134 20.7148 47.7614 20.5842 47.7166C20.4536 47.6731 20.3157 47.6501 20.1693 47.6501C20.0508 47.6501 19.9625 47.6719 19.9044 47.713C19.8464 47.7553 19.8186 47.8109 19.8186 47.8799C19.8186 47.9452 19.844 47.996 19.8936 48.0323C19.9432 48.0686 20.0472 48.0952 20.2044 48.1097L20.5092 48.1448C20.8394 48.175 21.0765 48.2657 21.2204 48.4157C21.3643 48.5657 21.4369 48.7568 21.4369 48.9914C21.4333 49.2793 21.3244 49.5103 21.1115 49.6857C20.8987 49.8599 20.5927 49.9482 20.1935 49.9482H20.1911V49.9494Z" fill="#36302B"/>
<path d="M23.2031 49.9202C22.879 49.9202 22.6492 49.8452 22.5137 49.6952C22.3783 49.5453 22.3105 49.3118 22.3105 48.9925V47.7261C22.3105 47.7032 22.2984 47.6911 22.2755 47.6911H22.1025C22.0638 47.6911 22.0444 47.6717 22.0444 47.633V47.1553C22.0444 47.1165 22.0638 47.0972 22.1025 47.0972H22.2755C22.2984 47.0972 22.3105 47.0851 22.3105 47.0621V46.3134C22.3105 46.2747 22.3299 46.2554 22.3686 46.2554H23.0592C23.0979 46.2554 23.1173 46.2747 23.1173 46.3134V47.0621C23.1173 47.0851 23.1294 47.0972 23.1523 47.0972H23.5092C23.5479 47.0972 23.5672 47.1165 23.5672 47.1553V47.633C23.5672 47.6717 23.5479 47.6911 23.5092 47.6911H23.1523C23.1294 47.6911 23.1173 47.7032 23.1173 47.7261V48.9635C23.1173 49.0675 23.1366 49.1401 23.1753 49.18C23.214 49.2199 23.2793 49.2405 23.3713 49.2405H23.5092C23.5479 49.2405 23.5672 49.2598 23.5672 49.2973V49.8621C23.5672 49.8996 23.5479 49.919 23.5092 49.919H23.2031V49.9202Z" fill="#36302B"/>
<path d="M24.4633 49.8852C24.4246 49.8852 24.4053 49.8659 24.4053 49.8272V47.1554C24.4053 47.1167 24.4246 47.0973 24.4633 47.0973H25.154C25.1927 47.0973 25.212 47.1167 25.212 47.1554V47.3912H25.2181C25.2834 47.2799 25.3777 47.1929 25.4999 47.1288C25.6233 47.0659 25.7708 47.0332 25.9438 47.0332C26.0357 47.0332 26.1252 47.0477 26.2111 47.0767C26.297 47.1058 26.3707 47.1469 26.4324 47.2001C26.459 47.2231 26.4651 47.2497 26.4494 47.2812L26.1264 47.869C26.1071 47.892 26.0805 47.8956 26.0454 47.8811C25.9075 47.7928 25.7732 47.7504 25.6426 47.7541C25.4926 47.7613 25.3838 47.817 25.3148 47.921C25.2459 48.025 25.2108 48.1701 25.2108 48.3588V49.8272C25.2108 49.8659 25.1915 49.8852 25.1528 49.8852H24.4621H24.4633Z" fill="#36302B"/>
<path d="M27.279 50.9214C27.2403 50.9214 27.2209 50.9021 27.2209 50.8634V50.2997C27.2209 50.261 27.2403 50.2417 27.279 50.2417H27.4C27.5003 50.2417 27.579 50.2199 27.6394 50.1752C27.6987 50.1304 27.7459 50.0566 27.781 49.9538L27.8559 49.747L26.8194 47.1562C26.8073 47.1175 26.823 47.0981 26.8653 47.0981H27.6019C27.637 47.0981 27.66 47.1175 27.6709 47.1562L28.2297 48.7685H28.2406L28.7582 47.1562C28.7703 47.1175 28.7933 47.0981 28.8272 47.0981H29.5408C29.5831 47.0981 29.5989 47.1175 29.5868 47.1562L28.4583 50.1219C28.4002 50.2755 28.3397 50.4037 28.2769 50.5078C28.214 50.6118 28.1438 50.694 28.0664 50.7557C27.989 50.8174 27.9031 50.8597 27.8076 50.8851C27.712 50.9105 27.6007 50.9226 27.4737 50.9226H27.2778L27.279 50.9214Z" fill="#36302B"/>
<path d="M33.0422 49.9491C32.747 49.9491 32.4918 49.8826 32.2765 49.7471C32.0612 49.6129 31.9137 49.4193 31.8326 49.1653C31.8024 49.0662 31.7782 48.9634 31.7637 48.8569C31.748 48.7517 31.7407 48.6295 31.7407 48.4916C31.7407 48.3538 31.748 48.2316 31.7637 48.1264C31.7794 48.0211 31.8024 47.9183 31.8326 47.8179C31.9137 47.5652 32.0612 47.3704 32.2765 47.2362C32.4918 47.1019 32.747 47.0342 33.0422 47.0342C33.3373 47.0342 33.5925 47.1019 33.8078 47.2362C34.0231 47.3704 34.1706 47.5639 34.2517 47.8179C34.2819 47.9183 34.3049 48.0199 34.3206 48.1264C34.3363 48.2316 34.3436 48.3538 34.3436 48.4916C34.3436 48.6295 34.3363 48.7517 34.3206 48.8569C34.3049 48.9621 34.2819 49.065 34.2517 49.1653C34.1706 49.4181 34.0231 49.6129 33.8078 49.7471C33.5925 49.8814 33.3373 49.9491 33.0422 49.9491ZM33.0422 49.2694C33.2647 49.2694 33.4086 49.1702 33.474 48.9706C33.4933 48.9053 33.5066 48.8388 33.5139 48.7723C33.5211 48.7057 33.526 48.6126 33.526 48.4929C33.526 48.3731 33.5223 48.2812 33.5139 48.2135C33.5066 48.1469 33.4933 48.0804 33.474 48.0151C33.4086 47.8155 33.2647 47.7151 33.0422 47.7151C32.8196 47.7151 32.6757 47.8155 32.6104 48.0151C32.591 48.0804 32.5777 48.1469 32.5705 48.2135C32.5632 48.2812 32.5584 48.3743 32.5584 48.4929C32.5584 48.6114 32.562 48.7045 32.5705 48.7723C32.5777 48.84 32.591 48.9053 32.6104 48.9706C32.6757 49.1702 32.8196 49.2694 33.0422 49.2694Z" fill="#36302B"/>
<path d="M35.3403 49.8849C35.3016 49.8849 35.2822 49.8656 35.2822 49.8268V47.7247C35.2822 47.7017 35.2701 47.6896 35.2471 47.6896H35.0742C35.0355 47.6896 35.0161 47.6703 35.0161 47.6316V47.1538C35.0161 47.1151 35.0355 47.0958 35.0742 47.0958H35.2471C35.2701 47.0958 35.2822 47.0837 35.2822 47.0607V46.9289C35.2822 46.5878 35.362 46.341 35.5229 46.1923C35.6838 46.0423 35.9317 45.9673 36.2668 45.9673H36.5836C36.6223 45.9673 36.6417 45.9866 36.6417 46.0253V46.5672C36.6417 46.6059 36.6223 46.6253 36.5836 46.6253H36.4046C36.2776 46.6253 36.193 46.6458 36.1518 46.6857C36.1095 46.7257 36.089 46.8055 36.089 46.9252V47.0631C36.089 47.0861 36.101 47.0982 36.124 47.0982H36.5788C36.6175 47.0982 36.6369 47.1175 36.6369 47.1562V47.634C36.6369 47.6727 36.6175 47.6921 36.5788 47.6921H36.124C36.101 47.6921 36.089 47.7029 36.089 47.7271V49.8293C36.089 49.868 36.0696 49.8873 36.0309 49.8873H35.3403V49.8849Z" fill="#36302B"/>
<path d="M39.7961 49.8852C39.7574 49.8852 39.738 49.8659 39.738 49.8272V46.7586C39.738 46.7356 39.7259 46.7236 39.7029 46.7236H38.7124C38.6737 46.7236 38.6543 46.7042 38.6543 46.6667V46.0329C38.6543 45.9954 38.6737 45.9761 38.7124 45.9761H41.6079C41.6466 45.9761 41.666 45.9954 41.666 46.0329V46.6667C41.666 46.7054 41.6466 46.7236 41.6079 46.7236H40.6173C40.5944 46.7236 40.5823 46.7344 40.5823 46.7586V49.8272C40.5823 49.8659 40.5629 49.8852 40.5242 49.8852H39.7925H39.7961Z" fill="#36302B"/>
<path d="M42.4331 49.8852C42.3943 49.8852 42.375 49.8659 42.375 49.8272V47.1554C42.375 47.1167 42.3943 47.0973 42.4331 47.0973H43.1237C43.1624 47.0973 43.1817 47.1167 43.1817 47.1554V47.3912H43.1878C43.2531 47.2799 43.3474 47.1929 43.4696 47.1288C43.593 47.0659 43.7405 47.0332 43.9135 47.0332C44.0054 47.0332 44.0949 47.0477 44.1808 47.0767C44.2667 47.1058 44.3405 47.1469 44.4021 47.2001C44.4288 47.2231 44.4348 47.2497 44.4191 47.2812L44.0961 47.869C44.0768 47.892 44.0502 47.8956 44.0151 47.8811C43.8772 47.7928 43.743 47.7504 43.6123 47.7541C43.4624 47.7613 43.3535 47.817 43.2846 47.921C43.2156 48.025 43.1805 48.1701 43.1805 48.3588V49.8272C43.1805 49.8659 43.1612 49.8852 43.1225 49.8852H42.4318H42.4331Z" fill="#36302B"/>
<path d="M46.5733 49.8852C46.5346 49.8852 46.5153 49.8659 46.5153 49.8272V49.6433H46.5092C46.4367 49.7353 46.3387 49.809 46.2153 49.8647C46.092 49.9203 45.9347 49.9481 45.7436 49.9481C45.6202 49.9481 45.5029 49.9312 45.3892 49.8998C45.2755 49.8671 45.1776 49.8163 45.0929 49.7474C45.0082 49.6784 44.9417 49.5901 44.8909 49.4825C44.8413 49.3748 44.8159 49.2466 44.8159 49.0966C44.8159 48.7894 44.9224 48.5632 45.1352 48.4169C45.3481 48.2705 45.6275 48.198 45.9734 48.198H46.4681C46.4911 48.198 46.5032 48.1871 46.5032 48.1629V48.0589C46.5032 47.9282 46.4633 47.8327 46.3847 47.771C46.306 47.7093 46.1549 47.6791 45.9323 47.6791C45.7908 47.6791 45.6674 47.696 45.5634 47.7311C45.4594 47.7662 45.3747 47.8085 45.3106 47.8581C45.2804 47.8811 45.255 47.8774 45.2356 47.846L44.9768 47.3912C44.9574 47.3561 44.9635 47.3295 44.9937 47.3102C45.1122 47.2255 45.2574 47.159 45.4279 47.1082C45.5985 47.0586 45.7993 47.0332 46.0291 47.0332C46.2589 47.0332 46.4476 47.0538 46.6048 47.0937C46.762 47.1336 46.8902 47.1953 46.9882 47.2775C47.0862 47.3598 47.1575 47.465 47.2011 47.5908C47.2446 47.7178 47.2676 47.8678 47.2676 48.0395V49.8248C47.2676 49.8635 47.2483 49.8828 47.2095 49.8828H46.5709L46.5733 49.8852ZM45.9855 49.3434C46.3314 49.3434 46.5032 49.2152 46.5032 48.9575V48.7677C46.5032 48.7447 46.4911 48.7326 46.4681 48.7326H46.0762C45.746 48.7326 45.5815 48.8378 45.5815 49.0495C45.5815 49.2454 45.7158 49.3434 45.9843 49.3434H45.9855Z" fill="#36302B"/>
<path d="M49.9586 49.8851C49.9199 49.8851 49.9005 49.8657 49.9005 49.827V48.2268C49.9005 48.0732 49.8654 47.9498 49.7941 47.8579C49.7227 47.766 49.6151 47.72 49.4687 47.72C49.3308 47.72 49.2232 47.766 49.1458 47.8579C49.0684 47.9498 49.0309 48.0732 49.0309 48.2268V49.827C49.0309 49.8657 49.0115 49.8851 48.9728 49.8851H48.2822C48.2435 49.8851 48.2241 49.8657 48.2241 49.827V47.1552C48.2241 47.1165 48.2435 47.0971 48.2822 47.0971H48.9728C49.0115 47.0971 49.0309 47.1165 49.0309 47.1552V47.3535H49.0369C49.1022 47.2665 49.1929 47.1915 49.3103 47.131C49.4276 47.0705 49.5764 47.0391 49.7566 47.0391C49.9102 47.0391 50.0469 47.0645 50.1654 47.1141C50.2839 47.1636 50.3843 47.235 50.4654 47.3269C50.5464 47.4189 50.6069 47.5277 50.6468 47.6547C50.6867 47.7817 50.7073 47.9208 50.7073 48.0744V49.827C50.7073 49.8657 50.6879 49.8851 50.6492 49.8851H49.9586Z" fill="#36302B"/>
<path d="M52.7512 49.9494C52.4597 49.9494 52.2093 49.9058 52.0001 49.8199C51.7908 49.7341 51.6191 49.6325 51.4848 49.5176C51.4582 49.491 51.4582 49.4644 51.4848 49.4365L51.8585 49.0156C51.8815 48.9926 51.9081 48.9926 51.9396 49.0156C52.0629 49.1112 52.1984 49.1862 52.3484 49.2406C52.4984 49.295 52.6459 49.3216 52.7923 49.3216C52.9386 49.3216 53.0463 49.2962 53.1176 49.2466C53.189 49.197 53.2241 49.1329 53.2241 49.0567C53.2241 48.9914 53.1987 48.9382 53.1467 48.8983C53.0947 48.8584 52.9882 48.8306 52.8274 48.8148L52.5165 48.7798C52.2214 48.7495 51.9952 48.6624 51.8404 48.5209C51.6844 48.3794 51.607 48.1811 51.607 47.9283C51.607 47.6513 51.7061 47.4336 51.9069 47.2751C52.1065 47.1155 52.3883 47.0356 52.7536 47.0356C52.9919 47.0356 53.2059 47.0683 53.3983 47.1336C53.5906 47.1989 53.7514 47.2812 53.8821 47.3816C53.9087 47.4082 53.9111 47.4372 53.8881 47.4674L53.5652 47.8642C53.5422 47.8908 53.5156 47.8944 53.4841 47.875C53.3886 47.8134 53.2749 47.7614 53.1443 47.7166C53.0136 47.6731 52.8757 47.6501 52.7294 47.6501C52.6109 47.6501 52.5226 47.6719 52.4645 47.713C52.4064 47.7553 52.3786 47.8109 52.3786 47.8799C52.3786 47.9452 52.404 47.996 52.4536 48.0323C52.5032 48.0686 52.6072 48.0952 52.7645 48.1097L53.0693 48.1448C53.3995 48.175 53.6365 48.2657 53.7805 48.4157C53.9244 48.5657 53.997 48.7568 53.997 48.9914C53.9933 49.2793 53.8845 49.5103 53.6716 49.6857C53.4587 49.8599 53.1527 49.9482 52.7536 49.9482H52.7512V49.9494Z" fill="#36302B"/>
<path d="M54.8691 50.9216C54.8304 50.9216 54.811 50.9022 54.811 50.8635V47.1551C54.811 47.1164 54.8304 47.0971 54.8691 47.0971H55.5597C55.5984 47.0971 55.6178 47.1164 55.6178 47.1551V47.3571H55.6238C55.6891 47.2616 55.7811 47.1829 55.9008 47.1237C56.0193 47.0644 56.1717 47.0342 56.3556 47.0342C56.5902 47.0342 56.7874 47.0898 56.9482 47.2011C57.1091 47.3124 57.2264 47.4793 57.299 47.7018C57.3341 47.8131 57.3583 47.9268 57.374 48.0417C57.3897 48.1566 57.397 48.3066 57.397 48.4904C57.397 48.6743 57.3897 48.8194 57.374 48.9367C57.3583 49.0541 57.3341 49.1678 57.299 49.279C57.2264 49.498 57.1091 49.6637 56.9482 49.7774C56.7874 49.8911 56.589 49.9467 56.3556 49.9467C56.1717 49.9467 56.0193 49.9165 55.9008 49.8572C55.7823 49.7979 55.6891 49.7205 55.6238 49.6238H55.6178V50.8611C55.6178 50.8998 55.5984 50.9191 55.5597 50.9191H54.8691V50.9216ZM56.0955 49.2694C56.3181 49.2694 56.462 49.1702 56.5273 48.9706C56.5467 48.9174 56.56 48.8545 56.5672 48.7831C56.5745 48.7118 56.5793 48.615 56.5793 48.4929C56.5793 48.3707 56.5757 48.2727 56.5672 48.2026C56.56 48.1312 56.5467 48.0695 56.5273 48.0151C56.4656 47.8155 56.3217 47.7151 56.0955 47.7151C55.8694 47.7151 55.7303 47.8155 55.6698 48.0151C55.6504 48.0683 55.6371 48.1312 55.6299 48.2026C55.6226 48.2739 55.6178 48.3707 55.6178 48.4929C55.6178 48.615 55.6214 48.713 55.6299 48.7831C55.6371 48.8545 55.6504 48.9162 55.6698 48.9706C55.7351 49.1702 55.8766 49.2694 56.0955 49.2694Z" fill="#36302B"/>
<path d="M59.3952 49.9491C59.1001 49.9491 58.8449 49.8826 58.6296 49.7471C58.4143 49.6129 58.2667 49.4193 58.1857 49.1653C58.1554 49.0662 58.1312 48.9634 58.1167 48.8569C58.101 48.7517 58.0938 48.6295 58.0938 48.4916C58.0938 48.3538 58.101 48.2316 58.1167 48.1264C58.1325 48.0211 58.1554 47.9183 58.1857 47.8179C58.2667 47.5652 58.4143 47.3704 58.6296 47.2362C58.8449 47.1019 59.1001 47.0342 59.3952 47.0342C59.6903 47.0342 59.9455 47.1019 60.1608 47.2362C60.3761 47.3704 60.5237 47.5639 60.6047 47.8179C60.6349 47.9183 60.6579 48.0199 60.6736 48.1264C60.6894 48.2316 60.6966 48.3538 60.6966 48.4916C60.6966 48.6295 60.6894 48.7517 60.6736 48.8569C60.6579 48.9621 60.6349 49.065 60.6047 49.1653C60.5237 49.4181 60.3761 49.6129 60.1608 49.7471C59.9455 49.8814 59.6903 49.9491 59.3952 49.9491ZM59.3952 49.2694C59.6177 49.2694 59.7617 49.1702 59.827 48.9706C59.8463 48.9053 59.8596 48.8388 59.8669 48.7723C59.8742 48.7057 59.879 48.6126 59.879 48.4929C59.879 48.3731 59.8754 48.2812 59.8669 48.2135C59.8596 48.1469 59.8463 48.0804 59.827 48.0151C59.7617 47.8155 59.6177 47.7151 59.3952 47.7151C59.1726 47.7151 59.0287 47.8155 58.9634 48.0151C58.944 48.0804 58.9307 48.1469 58.9235 48.2135C58.9162 48.2812 58.9114 48.3743 58.9114 48.4929C58.9114 48.6114 58.915 48.7045 58.9235 48.7723C58.9307 48.84 58.944 48.9053 58.9634 48.9706C59.0287 49.1702 59.1726 49.2694 59.3952 49.2694Z" fill="#36302B"/>
<path d="M61.5893 49.8852C61.5506 49.8852 61.5312 49.8659 61.5312 49.8272V47.1554C61.5312 47.1167 61.5506 47.0973 61.5893 47.0973H62.2799C62.3186 47.0973 62.338 47.1167 62.338 47.1554V47.3912H62.344C62.4094 47.2799 62.5037 47.1929 62.6259 47.1288C62.7492 47.0659 62.8968 47.0332 63.0698 47.0332C63.1617 47.0332 63.2512 47.0477 63.3371 47.0767C63.4229 47.1058 63.4967 47.1469 63.5584 47.2001C63.585 47.2231 63.5911 47.2497 63.5753 47.2812L63.2524 47.869C63.233 47.892 63.2064 47.8956 63.1713 47.8811C63.0335 47.7928 62.8992 47.7504 62.7686 47.7541C62.6186 47.7613 62.5097 47.817 62.4408 47.921C62.3719 48.025 62.3368 48.1701 62.3368 48.3588V49.8272C62.3368 49.8659 62.3174 49.8852 62.2787 49.8852H61.5881H61.5893Z" fill="#36302B"/>
<path d="M65.1817 49.9202C64.8575 49.9202 64.6277 49.8452 64.4922 49.6952C64.3568 49.5453 64.289 49.3118 64.289 48.9925V47.7261C64.289 47.7032 64.2769 47.6911 64.254 47.6911H64.081C64.0423 47.6911 64.0229 47.6717 64.0229 47.633V47.1553C64.0229 47.1165 64.0423 47.0972 64.081 47.0972H64.254C64.2769 47.0972 64.289 47.0851 64.289 47.0621V46.3134C64.289 46.2747 64.3084 46.2554 64.3471 46.2554H65.0377C65.0764 46.2554 65.0958 46.2747 65.0958 46.3134V47.0621C65.0958 47.0851 65.1079 47.0972 65.1309 47.0972H65.4877C65.5264 47.0972 65.5457 47.1165 65.5457 47.1553V47.633C65.5457 47.6717 65.5264 47.6911 65.4877 47.6911H65.1309C65.1079 47.6911 65.0958 47.7032 65.0958 47.7261V48.9635C65.0958 49.0675 65.1151 49.1401 65.1538 49.18C65.1925 49.2199 65.2579 49.2405 65.3498 49.2405H65.4877C65.5264 49.2405 65.5457 49.2598 65.5457 49.2973V49.8621C65.5457 49.8996 65.5264 49.919 65.4877 49.919H65.1817V49.9202Z" fill="#36302B"/>
<path d="M69.6266 49.8852C69.5879 49.8852 69.5685 49.8659 69.5685 49.8272V49.6433H69.5625C69.4899 49.7353 69.3919 49.809 69.2686 49.8647C69.1452 49.9203 68.9879 49.9481 68.7968 49.9481C68.6735 49.9481 68.5561 49.9312 68.4424 49.8998C68.3288 49.8671 68.2308 49.8163 68.1461 49.7474C68.0615 49.6784 67.9949 49.5901 67.9441 49.4825C67.8945 49.3748 67.8691 49.2466 67.8691 49.0966C67.8691 48.7894 67.9756 48.5632 68.1885 48.4169C68.4013 48.2705 68.6807 48.198 69.0266 48.198H69.5213C69.5443 48.198 69.5564 48.1871 69.5564 48.1629V48.0589C69.5564 47.9282 69.5165 47.8327 69.4379 47.771C69.3593 47.7093 69.2081 47.6791 68.9855 47.6791C68.844 47.6791 68.7206 47.696 68.6166 47.7311C68.5126 47.7662 68.4279 47.8085 68.3638 47.8581C68.3336 47.8811 68.3082 47.8774 68.2888 47.846L68.03 47.3912C68.0107 47.3561 68.0167 47.3295 68.0469 47.3102C68.1655 47.2255 68.3106 47.159 68.4812 47.1082C68.6517 47.0586 68.8525 47.0332 69.0823 47.0332C69.3121 47.0332 69.5008 47.0538 69.658 47.0937C69.8152 47.1336 69.9435 47.1953 70.0414 47.2775C70.1394 47.3598 70.2108 47.465 70.2543 47.5908C70.2978 47.7178 70.3208 47.8678 70.3208 48.0395V49.8248C70.3208 49.8635 70.3015 49.8828 70.2628 49.8828H69.6241L69.6266 49.8852ZM69.0387 49.3434C69.3847 49.3434 69.5564 49.2152 69.5564 48.9575V48.7677C69.5564 48.7447 69.5443 48.7326 69.5213 48.7326H69.1295C68.7993 48.7326 68.6348 48.8378 68.6348 49.0495C68.6348 49.2454 68.769 49.3434 69.0375 49.3434H69.0387Z" fill="#36302B"/>
<path d="M73.0118 49.8851C72.9731 49.8851 72.9537 49.8657 72.9537 49.827V48.2268C72.9537 48.0732 72.9187 47.9498 72.8473 47.8579C72.7759 47.766 72.6683 47.72 72.5219 47.72C72.384 47.72 72.2764 47.766 72.199 47.8579C72.1216 47.9498 72.0841 48.0732 72.0841 48.2268V49.827C72.0841 49.8657 72.0647 49.8851 72.026 49.8851H71.3354C71.2967 49.8851 71.2773 49.8657 71.2773 49.827V47.1552C71.2773 47.1165 71.2967 47.0971 71.3354 47.0971H72.026C72.0647 47.0971 72.0841 47.1165 72.0841 47.1552V47.3535H72.0901C72.1555 47.2665 72.2462 47.1915 72.3635 47.131C72.4808 47.0705 72.6296 47.0391 72.8098 47.0391C72.9634 47.0391 73.1001 47.0645 73.2186 47.1141C73.3371 47.1636 73.4375 47.235 73.5186 47.3269C73.5996 47.4189 73.6601 47.5277 73.7 47.6547C73.7399 47.7817 73.7605 47.9208 73.7605 48.0744V49.827C73.7605 49.8657 73.7411 49.8851 73.7024 49.8851H73.0118Z" fill="#36302B"/>
<path d="M76.4095 49.8849C76.3708 49.8849 76.3515 49.8656 76.3515 49.8269V49.6249H76.3454C76.2801 49.7204 76.1882 49.799 76.0684 49.8583C75.9499 49.9176 75.7975 49.9478 75.6137 49.9478C75.379 49.9478 75.1819 49.891 75.021 49.7785C74.8601 49.6648 74.7428 49.4991 74.6702 49.2802C74.6352 49.1689 74.611 49.0552 74.5952 48.9379C74.5795 48.8206 74.5723 48.6718 74.5723 48.4916C74.5723 48.3113 74.5795 48.1577 74.5952 48.0428C74.611 47.9279 74.6352 47.8142 74.6702 47.703C74.7428 47.4804 74.8601 47.3135 75.021 47.2022C75.1819 47.0909 75.3802 47.0353 75.6137 47.0353C75.7975 47.0353 75.9499 47.0655 76.0684 47.1248C76.187 47.1841 76.2801 47.2615 76.3454 47.3582H76.3515V46.0278C76.3515 45.9891 76.3708 45.9697 76.4095 45.9697H77.1002C77.1389 45.9697 77.1582 45.9891 77.1582 46.0278V49.8281C77.1582 49.8668 77.1389 49.8861 77.1002 49.8861H76.4095V49.8849ZM75.8737 49.2693C76.0926 49.2693 76.2341 49.1701 76.2995 48.9705C76.3188 48.9173 76.3321 48.8544 76.3394 48.7831C76.3466 48.7117 76.3503 48.6149 76.3503 48.4928C76.3503 48.3706 76.3466 48.2726 76.3394 48.2025C76.3321 48.1311 76.3188 48.0694 76.2995 48.015C76.2378 47.8154 76.0963 47.7151 75.8737 47.7151C75.6512 47.7151 75.5036 47.8154 75.4419 48.015C75.4226 48.0682 75.4092 48.1311 75.402 48.2025C75.3947 48.2739 75.3899 48.3706 75.3899 48.4928C75.3899 48.6149 75.3935 48.7129 75.402 48.7831C75.4092 48.8544 75.4226 48.9161 75.4419 48.9705C75.5072 49.1701 75.6512 49.2693 75.8737 49.2693Z" fill="#36302B"/>
<path d="M79.749 46.0278C79.749 45.9891 79.7684 45.9697 79.8071 45.9697H80.5388C80.5775 45.9697 80.5969 45.9891 80.5969 46.0278V49.1024C80.5969 49.1253 80.6078 49.1374 80.632 49.1374H82.3592C82.3979 49.1374 82.4172 49.1568 82.4172 49.1943V49.8281C82.4172 49.8668 82.3979 49.8849 82.3592 49.8849H79.8083C79.7696 49.8849 79.7502 49.8656 79.7502 49.8269V46.0266L79.749 46.0278Z" fill="#36302B"/>
<path d="M84.3151 49.9491C84.02 49.9491 83.7648 49.8826 83.5495 49.7471C83.3342 49.6129 83.1866 49.4193 83.1056 49.1653C83.0754 49.0662 83.0512 48.9634 83.0367 48.8569C83.0209 48.7517 83.0137 48.6295 83.0137 48.4916C83.0137 48.3538 83.0209 48.2316 83.0367 48.1264C83.0524 48.0211 83.0754 47.9183 83.1056 47.8179C83.1866 47.5652 83.3342 47.3704 83.5495 47.2362C83.7648 47.1019 84.02 47.0342 84.3151 47.0342C84.6102 47.0342 84.8654 47.1019 85.0807 47.2362C85.296 47.3704 85.4436 47.5639 85.5246 47.8179C85.5549 47.9183 85.5778 48.0199 85.5936 48.1264C85.6093 48.2316 85.6165 48.3538 85.6165 48.4916C85.6165 48.6295 85.6093 48.7517 85.5936 48.8569C85.5778 48.9621 85.5549 49.065 85.5246 49.1653C85.4436 49.4181 85.296 49.6129 85.0807 49.7471C84.8654 49.8814 84.6102 49.9491 84.3151 49.9491ZM84.3151 49.2694C84.5377 49.2694 84.6816 49.1702 84.7469 48.9706C84.7663 48.9053 84.7796 48.8388 84.7868 48.7723C84.7941 48.7057 84.7989 48.6126 84.7989 48.4929C84.7989 48.3731 84.7953 48.2812 84.7868 48.2135C84.7796 48.1469 84.7663 48.0804 84.7469 48.0151C84.6816 47.8155 84.5377 47.7151 84.3151 47.7151C84.0926 47.7151 83.9486 47.8155 83.8833 48.0151C83.864 48.0804 83.8507 48.1469 83.8434 48.2135C83.8361 48.2812 83.8313 48.3743 83.8313 48.4929C83.8313 48.6114 83.8349 48.7045 83.8434 48.7723C83.8507 48.84 83.864 48.9053 83.8833 48.9706C83.9486 49.1702 84.0926 49.2694 84.3151 49.2694Z" fill="#36302B"/>
<path d="M87.4643 50.9857C87.3603 50.9857 87.2575 50.9748 87.1535 50.9543C87.0495 50.9337 86.9515 50.9047 86.8572 50.8684C86.7628 50.8321 86.6781 50.7873 86.6007 50.7365C86.5233 50.6845 86.4604 50.6277 86.4108 50.5672C86.3879 50.5358 86.3903 50.5079 86.4169 50.4813L86.8257 50.0665C86.8523 50.0399 86.8813 50.0399 86.9116 50.0665C86.9999 50.1427 87.0906 50.2032 87.1825 50.2455C87.2744 50.2878 87.376 50.3084 87.4873 50.3084C87.6833 50.3084 87.8248 50.2576 87.9131 50.156C88.0014 50.0544 88.0461 49.8996 88.0461 49.6927V49.4569H88.0401C87.9784 49.5573 87.8889 49.6359 87.7691 49.6927C87.6506 49.7508 87.5018 49.7786 87.3252 49.7786C87.0954 49.7786 86.8995 49.7218 86.741 49.6093C86.5814 49.4956 86.4653 49.3287 86.3927 49.1061C86.3625 49.0021 86.3395 48.8981 86.3238 48.7929C86.308 48.6876 86.3008 48.5594 86.3008 48.4094C86.3008 48.2595 86.308 48.1313 86.3238 48.0236C86.3395 47.916 86.3625 47.8132 86.3927 47.7128C86.4653 47.4902 86.5814 47.3221 86.741 47.2084C86.9007 47.0947 87.0954 47.0391 87.3252 47.0391C87.5018 47.0391 87.6494 47.0681 87.7691 47.1249C87.8877 47.183 87.9784 47.2616 88.0401 47.3608H88.0461V47.1588C88.0461 47.1201 88.0655 47.1007 88.1042 47.1007H88.7948C88.8335 47.1007 88.8529 47.1201 88.8529 47.1588V49.5887C88.8529 50.5213 88.3908 50.9881 87.4655 50.9881V50.9857H87.4643ZM87.5792 49.0977C87.6905 49.0977 87.78 49.0723 87.8465 49.0227C87.9131 48.9731 87.9627 48.8981 87.9929 48.7977C88.0122 48.7445 88.0256 48.6876 88.0328 48.6272C88.0401 48.5679 88.0449 48.4941 88.0449 48.4058C88.0449 48.3175 88.0413 48.2437 88.0328 48.1845C88.0256 48.1252 88.0122 48.0684 87.9929 48.0151C87.9627 47.9148 87.9131 47.841 87.8465 47.7902C87.7788 47.7406 87.6905 47.7152 87.5792 47.7152C87.468 47.7152 87.3797 47.7406 87.3144 47.7902C87.249 47.8398 87.1994 47.9148 87.1644 48.0151C87.1486 48.0684 87.1378 48.1252 87.1293 48.1845C87.1208 48.2437 87.1184 48.3175 87.1184 48.4058C87.1184 48.4941 87.122 48.5679 87.1293 48.6272C87.1366 48.6864 87.1486 48.7433 87.1644 48.7977C87.1994 48.8981 87.249 48.9719 87.3144 49.0227C87.3797 49.0723 87.468 49.0977 87.5792 49.0977Z" fill="#36302B"/>
<path d="M89.8823 46.6556C89.8436 46.6556 89.8242 46.6362 89.8242 46.5987V46.0339C89.8242 45.9964 89.8436 45.9771 89.8823 45.9771H90.5729C90.6116 45.9771 90.631 45.9964 90.631 46.0339V46.5987C90.631 46.6374 90.6116 46.6556 90.5729 46.6556H89.8823ZM89.8823 49.8862C89.8436 49.8862 89.8242 49.8668 89.8242 49.8281V47.1563C89.8242 47.1176 89.8436 47.0983 89.8823 47.0983H90.5729C90.6116 47.0983 90.631 47.1176 90.631 47.1563V49.8281C90.631 49.8668 90.6116 49.8862 90.5729 49.8862H89.8823Z" fill="#36302B"/>
<path d="M92.6979 49.9494C92.4064 49.9494 92.1561 49.9058 91.9468 49.8199C91.7376 49.7341 91.5658 49.6325 91.4316 49.5176C91.405 49.491 91.405 49.4644 91.4316 49.4365L91.8053 49.0156C91.8283 48.9926 91.8549 48.9926 91.8864 49.0156C92.0097 49.1112 92.1452 49.1862 92.2952 49.2406C92.4452 49.295 92.5927 49.3216 92.7391 49.3216C92.8854 49.3216 92.9931 49.2962 93.0644 49.2466C93.1358 49.197 93.1709 49.1329 93.1709 49.0567C93.1709 48.9914 93.1455 48.9382 93.0935 48.8983C93.0414 48.8584 92.935 48.8306 92.7741 48.8148L92.4633 48.7798C92.1682 48.7495 91.942 48.6624 91.7872 48.5209C91.6311 48.3794 91.5537 48.1811 91.5537 47.9283C91.5537 47.6513 91.6529 47.4336 91.8537 47.2751C92.0533 47.1155 92.3351 47.0356 92.7004 47.0356C92.9386 47.0356 93.1527 47.0683 93.345 47.1336C93.5373 47.1989 93.6982 47.2812 93.8288 47.3816C93.8554 47.4082 93.8579 47.4372 93.8349 47.4674L93.5119 47.8642C93.489 47.8908 93.4623 47.8944 93.4309 47.875C93.3354 47.8134 93.2217 47.7614 93.091 47.7166C92.9604 47.6731 92.8225 47.6501 92.6762 47.6501C92.5576 47.6501 92.4693 47.6719 92.4113 47.713C92.3532 47.7553 92.3254 47.8109 92.3254 47.8799C92.3254 47.9452 92.3508 47.996 92.4004 48.0323C92.45 48.0686 92.554 48.0952 92.7112 48.1097L93.016 48.1448C93.3462 48.175 93.5833 48.2657 93.7272 48.4157C93.8712 48.5657 93.9437 48.7568 93.9437 48.9914C93.9401 49.2793 93.8313 49.5103 93.6184 49.6857C93.4055 49.8599 93.0995 49.9482 92.7004 49.9482H92.6979V49.9494Z" fill="#36302B"/>
<path d="M95.7095 49.9202C95.3853 49.9202 95.1555 49.8452 95.0201 49.6952C94.8846 49.5453 94.8169 49.3118 94.8169 48.9925V47.7261C94.8169 47.7032 94.8048 47.6911 94.7818 47.6911H94.6088C94.5701 47.6911 94.5508 47.6717 94.5508 47.633V47.1553C94.5508 47.1165 94.5701 47.0972 94.6088 47.0972H94.7818C94.8048 47.0972 94.8169 47.0851 94.8169 47.0621V46.3134C94.8169 46.2747 94.8362 46.2554 94.8749 46.2554H95.5656C95.6043 46.2554 95.6236 46.2747 95.6236 46.3134V47.0621C95.6236 47.0851 95.6357 47.0972 95.6587 47.0972H96.0155C96.0542 47.0972 96.0736 47.1165 96.0736 47.1553V47.633C96.0736 47.6717 96.0542 47.6911 96.0155 47.6911H95.6587C95.6357 47.6911 95.6236 47.7032 95.6236 47.7261V48.9635C95.6236 49.0675 95.643 49.1401 95.6817 49.18C95.7204 49.2199 95.7857 49.2405 95.8776 49.2405H96.0155C96.0542 49.2405 96.0736 49.2598 96.0736 49.2973V49.8621C96.0736 49.8996 96.0542 49.919 96.0155 49.919H95.7095V49.9202Z" fill="#36302B"/>
<path d="M96.9702 46.6556C96.9315 46.6556 96.9121 46.6362 96.9121 46.5987V46.0339C96.9121 45.9964 96.9315 45.9771 96.9702 45.9771H97.6608C97.6995 45.9771 97.7189 45.9964 97.7189 46.0339V46.5987C97.7189 46.6374 97.6995 46.6556 97.6608 46.6556H96.9702ZM96.9702 49.8862C96.9315 49.8862 96.9121 49.8668 96.9121 49.8281V47.1563C96.9121 47.1176 96.9315 47.0983 96.9702 47.0983H97.6608C97.6995 47.0983 97.7189 47.1176 97.7189 47.1563V49.8281C97.7189 49.8668 97.6995 49.8862 97.6608 49.8862H96.9702Z" fill="#36302B"/>
<path d="M99.8438 49.9491C99.5487 49.9491 99.2947 49.8826 99.0842 49.7508C98.8725 49.6189 98.725 49.4218 98.6403 49.1605C98.6101 49.0759 98.5871 48.9803 98.5738 48.8727C98.5605 48.765 98.5532 48.638 98.5532 48.4929C98.5532 48.3477 98.5593 48.2207 98.5738 48.1131C98.5871 48.0054 98.6089 47.9099 98.6403 47.8252C98.725 47.564 98.8725 47.368 99.0842 47.235C99.2947 47.1031 99.5487 47.0366 99.8438 47.0366C100.086 47.0366 100.296 47.085 100.478 47.183C100.658 47.2809 100.798 47.4067 100.897 47.5603C100.917 47.5906 100.913 47.6184 100.885 47.6414L100.384 47.9692C100.349 47.9921 100.322 47.9885 100.299 47.9571C100.237 47.8724 100.173 47.8107 100.106 47.7732C100.039 47.7345 99.9551 47.7152 99.8559 47.7152C99.7482 47.7152 99.6575 47.7406 99.5825 47.7901C99.5075 47.8397 99.4543 47.9147 99.4241 48.0151C99.4047 48.0732 99.3914 48.1385 99.3842 48.2111C99.3769 48.2836 99.3721 48.378 99.3721 48.4929C99.3721 48.6078 99.3757 48.7021 99.3842 48.7747C99.3914 48.8473 99.4047 48.9126 99.4241 48.9706C99.4543 49.071 99.5075 49.1448 99.5825 49.1956C99.6575 49.2452 99.7482 49.2706 99.8559 49.2706C99.9551 49.2706 100.039 49.2512 100.106 49.2125C100.173 49.1738 100.238 49.1134 100.299 49.0287C100.322 48.9985 100.351 48.9936 100.384 49.0166L100.885 49.3444C100.912 49.3674 100.915 49.394 100.897 49.4254C100.797 49.579 100.658 49.7048 100.478 49.8028C100.297 49.9008 100.086 49.9491 99.8438 49.9491Z" fill="#36302B"/>
<path d="M104.646 49.9492C104.492 49.9492 104.341 49.9347 104.193 49.9056C104.046 49.8766 103.907 49.8391 103.776 49.7907C103.645 49.7424 103.526 49.6867 103.416 49.6214C103.307 49.5561 103.214 49.4872 103.136 49.4146C103.106 49.3843 103.104 49.3517 103.13 49.3166L103.568 48.8159C103.591 48.7856 103.62 48.7832 103.654 48.8098C103.785 48.9138 103.936 49.007 104.109 49.0892C104.282 49.1715 104.472 49.2126 104.678 49.2126C104.885 49.2126 105.044 49.1691 105.154 49.0832C105.263 48.9973 105.318 48.8848 105.318 48.7469C105.318 48.632 105.276 48.5377 105.191 48.4651C105.107 48.3925 104.947 48.3405 104.713 48.3091L104.507 48.2801C104.108 48.2268 103.802 48.1047 103.589 47.9148C103.376 47.7249 103.269 47.4552 103.269 47.1056C103.269 46.9254 103.302 46.7609 103.367 46.6134C103.433 46.4658 103.526 46.34 103.647 46.236C103.768 46.132 103.914 46.0521 104.085 45.9941C104.255 45.936 104.446 45.9082 104.658 45.9082C104.919 45.9082 105.165 45.9445 105.394 46.0183C105.624 46.0908 105.823 46.1912 105.987 46.3182C106.022 46.3412 106.026 46.3702 105.999 46.4041L105.648 46.9278C105.625 46.9581 105.599 46.9641 105.567 46.9448C105.417 46.8456 105.269 46.7706 105.121 46.7198C104.974 46.669 104.819 46.6448 104.658 46.6448C104.485 46.6448 104.354 46.6847 104.266 46.7657C104.178 46.8468 104.133 46.9484 104.133 47.0705C104.133 47.1818 104.178 47.2737 104.268 47.3475C104.359 47.4201 104.516 47.4721 104.744 47.5036L104.951 47.5326C105.357 47.5858 105.664 47.708 105.872 47.8979C106.079 48.0878 106.183 48.3611 106.183 48.7179C106.183 48.8945 106.15 49.059 106.085 49.2102C106.02 49.3614 105.923 49.492 105.795 49.6021C105.667 49.7109 105.506 49.7968 105.315 49.8585C105.122 49.9202 104.9 49.9504 104.647 49.9504H104.646V49.9492Z" fill="#36302B"/>
<path d="M108.18 49.9491C107.861 49.9491 107.597 49.8802 107.385 49.7423C107.173 49.6044 107.028 49.4085 106.947 49.1545C106.917 49.0662 106.893 48.9706 106.875 48.8666C106.858 48.7626 106.849 48.638 106.849 48.4929C106.849 48.3477 106.856 48.2219 106.872 48.1155C106.888 48.0103 106.911 47.9135 106.941 47.8252C107.022 47.5724 107.166 47.3777 107.375 47.241C107.585 47.1044 107.839 47.0366 108.138 47.0366C108.438 47.0366 108.707 47.1056 108.913 47.2434C109.118 47.3813 109.261 47.5736 109.342 47.8192C109.358 47.8651 109.371 47.9147 109.382 47.9655C109.393 48.0163 109.402 48.0756 109.411 48.1409C109.419 48.2062 109.424 48.2824 109.428 48.3683C109.431 48.4542 109.434 48.557 109.434 48.6767C109.434 48.7154 109.413 48.7348 109.371 48.7348H107.684C107.661 48.7348 107.649 48.7469 107.649 48.7699C107.652 48.8279 107.664 48.8787 107.684 48.9259C107.722 49.0493 107.791 49.1412 107.891 49.2029C107.991 49.2645 108.113 49.2948 108.259 49.2948C108.397 49.2948 108.518 49.273 108.622 49.2283C108.726 49.1847 108.818 49.1242 108.899 49.0468C108.934 49.0202 108.961 49.0202 108.98 49.0468L109.36 49.4036C109.39 49.4302 109.393 49.4569 109.366 49.4847C109.232 49.6262 109.065 49.7399 108.865 49.8246C108.666 49.9092 108.437 49.9515 108.181 49.9515V49.9491H108.18ZM108.605 48.199C108.628 48.199 108.64 48.1881 108.64 48.1639C108.64 48.1216 108.638 48.0841 108.632 48.0514C108.626 48.0187 108.62 47.9873 108.611 47.9558C108.581 47.8603 108.524 47.7853 108.442 47.7309C108.36 47.6777 108.261 47.6498 108.146 47.6498C108.031 47.6498 107.932 47.6765 107.849 47.7309C107.767 47.7841 107.71 47.8591 107.68 47.9558C107.673 47.9873 107.666 48.0187 107.659 48.0514C107.653 48.0841 107.651 48.1216 107.651 48.1639C107.651 48.1869 107.663 48.199 107.686 48.199H108.608H108.605Z" fill="#36302B"/>
<path d="M110.328 49.8852C110.289 49.8852 110.27 49.8659 110.27 49.8272V47.1554C110.27 47.1167 110.289 47.0973 110.328 47.0973H111.019C111.057 47.0973 111.077 47.1167 111.077 47.1554V47.3912H111.083C111.148 47.2799 111.242 47.1929 111.365 47.1288C111.488 47.0659 111.636 47.0332 111.809 47.0332C111.9 47.0332 111.99 47.0477 112.076 47.0767C112.162 47.1058 112.235 47.1469 112.297 47.2001C112.324 47.2231 112.33 47.2497 112.314 47.2812L111.991 47.869C111.972 47.892 111.945 47.8956 111.91 47.8811C111.772 47.7928 111.638 47.7504 111.507 47.7541C111.357 47.7613 111.249 47.817 111.18 47.921C111.111 48.025 111.076 48.1701 111.076 48.3588V49.8272C111.076 49.8659 111.056 49.8852 111.017 49.8852H110.327H110.328Z" fill="#36302B"/>
<path d="M113.753 49.8851C113.718 49.8851 113.695 49.8657 113.684 49.827L112.694 47.1552C112.682 47.1165 112.698 47.0972 112.74 47.0972H113.466C113.504 47.0972 113.528 47.1165 113.541 47.1552L114.081 48.8074H114.093L114.611 47.1552C114.623 47.1165 114.647 47.0972 114.686 47.0972H115.4C115.442 47.0972 115.458 47.1165 115.446 47.1552L114.455 49.827C114.443 49.8657 114.42 49.8851 114.386 49.8851H113.752H113.753Z" fill="#36302B"/>
<path d="M116.201 46.6556C116.162 46.6556 116.143 46.6362 116.143 46.5987V46.0339C116.143 45.9964 116.162 45.9771 116.201 45.9771H116.892C116.93 45.9771 116.95 45.9964 116.95 46.0339V46.5987C116.95 46.6374 116.93 46.6556 116.892 46.6556H116.201ZM116.201 49.8862C116.162 49.8862 116.143 49.8668 116.143 49.8281V47.1563C116.143 47.1176 116.162 47.0983 116.201 47.0983H116.892C116.93 47.0983 116.95 47.1176 116.95 47.1563V49.8281C116.95 49.8668 116.93 49.8862 116.892 49.8862H116.201Z" fill="#36302B"/>
<path d="M119.074 49.9491C118.779 49.9491 118.525 49.8826 118.314 49.7508C118.103 49.6189 117.955 49.4218 117.87 49.1605C117.84 49.0759 117.817 48.9803 117.804 48.8727C117.79 48.765 117.783 48.638 117.783 48.4929C117.783 48.3477 117.789 48.2207 117.804 48.1131C117.817 48.0054 117.839 47.9099 117.87 47.8252C117.955 47.564 118.103 47.368 118.314 47.235C118.525 47.1031 118.779 47.0366 119.074 47.0366C119.316 47.0366 119.526 47.085 119.708 47.183C119.888 47.2809 120.028 47.4067 120.127 47.5603C120.147 47.5906 120.143 47.6184 120.115 47.6414L119.614 47.9692C119.579 47.9921 119.552 47.9885 119.529 47.9571C119.467 47.8724 119.403 47.8107 119.336 47.7732C119.268 47.7345 119.185 47.7152 119.086 47.7152C118.978 47.7152 118.887 47.7406 118.813 47.7901C118.738 47.8397 118.684 47.9147 118.654 48.0151C118.635 48.0732 118.621 48.1385 118.614 48.2111C118.607 48.2836 118.602 48.378 118.602 48.4929C118.602 48.6078 118.606 48.7021 118.614 48.7747C118.621 48.8473 118.635 48.9126 118.654 48.9706C118.684 49.071 118.738 49.1448 118.813 49.1956C118.887 49.2452 118.978 49.2706 119.086 49.2706C119.185 49.2706 119.268 49.2512 119.336 49.2125C119.403 49.1738 119.468 49.1134 119.529 49.0287C119.552 48.9985 119.581 48.9936 119.614 49.0166L120.115 49.3444C120.142 49.3674 120.145 49.394 120.127 49.4254C120.027 49.579 119.888 49.7048 119.708 49.8028C119.527 49.9008 119.316 49.9491 119.074 49.9491Z" fill="#36302B"/>
<path d="M122.132 49.9491C121.814 49.9491 121.549 49.8802 121.337 49.7423C121.125 49.6044 120.98 49.4085 120.899 49.1545C120.869 49.0662 120.845 48.9706 120.827 48.8666C120.81 48.7626 120.801 48.638 120.801 48.4929C120.801 48.3477 120.809 48.2219 120.824 48.1155C120.84 48.0103 120.863 47.9135 120.893 47.8252C120.974 47.5724 121.118 47.3777 121.327 47.241C121.537 47.1044 121.791 47.0366 122.091 47.0366C122.391 47.0366 122.659 47.1056 122.865 47.2434C123.07 47.3813 123.213 47.5736 123.294 47.8192C123.31 47.8651 123.323 47.9147 123.334 47.9655C123.345 48.0163 123.355 48.0756 123.363 48.1409C123.37 48.2062 123.376 48.2824 123.38 48.3683C123.384 48.4542 123.386 48.557 123.386 48.6767C123.386 48.7154 123.365 48.7348 123.323 48.7348H121.636C121.613 48.7348 121.601 48.7469 121.601 48.7699C121.604 48.8279 121.616 48.8787 121.636 48.9259C121.675 49.0493 121.743 49.1412 121.843 49.2029C121.943 49.2645 122.065 49.2948 122.212 49.2948C122.349 49.2948 122.47 49.273 122.574 49.2283C122.678 49.1847 122.77 49.1242 122.851 49.0468C122.886 49.0202 122.913 49.0202 122.932 49.0468L123.312 49.4036C123.342 49.4302 123.345 49.4569 123.318 49.4847C123.184 49.6262 123.017 49.7399 122.818 49.8246C122.618 49.9092 122.389 49.9515 122.133 49.9515V49.9491H122.132ZM122.557 48.199C122.58 48.199 122.593 48.1881 122.593 48.1639C122.593 48.1216 122.59 48.0841 122.584 48.0514C122.578 48.0187 122.572 47.9873 122.564 47.9558C122.533 47.8603 122.476 47.7853 122.394 47.7309C122.312 47.6777 122.213 47.6498 122.098 47.6498C121.983 47.6498 121.884 47.6765 121.802 47.7309C121.719 47.7841 121.662 47.8591 121.632 47.9558C121.625 47.9873 121.618 48.0187 121.612 48.0514C121.606 48.0841 121.603 48.1216 121.603 48.1639C121.603 48.1869 121.615 48.199 121.638 48.199H122.56H122.557Z" fill="#36302B"/>
<path d="M125.315 49.9494C125.024 49.9494 124.773 49.9058 124.564 49.8199C124.355 49.7341 124.183 49.6325 124.049 49.5176C124.022 49.491 124.022 49.4644 124.049 49.4365L124.423 49.0156C124.445 48.9926 124.472 48.9926 124.504 49.0156C124.627 49.1112 124.762 49.1862 124.912 49.2406C125.062 49.295 125.21 49.3216 125.356 49.3216C125.503 49.3216 125.61 49.2962 125.682 49.2466C125.753 49.197 125.788 49.1329 125.788 49.0567C125.788 48.9914 125.763 48.9382 125.711 48.8983C125.659 48.8584 125.552 48.8306 125.391 48.8148L125.08 48.7798C124.785 48.7495 124.559 48.6624 124.404 48.5209C124.248 48.3794 124.171 48.1811 124.171 47.9283C124.171 47.6513 124.27 47.4336 124.471 47.2751C124.67 47.1155 124.952 47.0356 125.318 47.0356C125.556 47.0356 125.77 47.0683 125.962 47.1336C126.155 47.1989 126.315 47.2812 126.446 47.3816C126.473 47.4082 126.475 47.4372 126.452 47.4674L126.129 47.8642C126.106 47.8908 126.08 47.8944 126.048 47.875C125.953 47.8134 125.839 47.7614 125.708 47.7166C125.578 47.6731 125.44 47.6501 125.293 47.6501C125.175 47.6501 125.087 47.6719 125.028 47.713C124.97 47.7553 124.943 47.8109 124.943 47.8799C124.943 47.9452 124.968 47.996 125.018 48.0323C125.067 48.0686 125.171 48.0952 125.328 48.1097L125.633 48.1448C125.963 48.175 126.2 48.2657 126.344 48.4157C126.488 48.5657 126.561 48.7568 126.561 48.9914C126.557 49.2793 126.448 49.5103 126.236 49.6857C126.023 49.8599 125.717 49.9482 125.318 49.9482H125.315V49.9494Z" fill="#36302B"/>
<path d="M143.725 37.8857H141.937V42.552H143.725V37.8857Z" fill="#00665E"/>
<path d="M143.725 32.0967H141.937V37.2407H143.725V32.0967Z" fill="#00665E"/>
<path d="M143.565 27.999L143.434 27.7571C143.351 27.6204 143.27 27.4837 143.187 27.3422C143.093 27.1693 142.988 27.0035 142.877 26.833C142.765 27.0011 142.659 27.1656 142.561 27.3386C142.482 27.4753 142.399 27.6131 142.317 27.7474L142.088 28.1611L141.938 28.4392V31.5223H143.728V28.3001L143.657 28.1695L143.565 28.0002V27.999Z" fill="#00665E"/>
<path d="M147.095 44.6577V46.6994C147.095 48.7435 145.649 50.4537 143.728 50.8662V47.4735H141.939V50.8662C140.016 50.4537 138.572 48.7435 138.572 46.6994V44.6577L136.945 47.5932L136.956 47.6597C137.381 50.288 139.457 52.2607 142.032 52.603L142.852 53.163L143.685 52.5946C146.236 52.2341 148.288 50.2687 148.713 47.6585L148.723 47.5932L147.096 44.6589H147.095V44.6577Z" fill="#00665E"/>
<path d="M143.102 23.7778L142.889 23.5419L142.818 23.4621L142.747 23.3823C142.635 23.2589 142.523 23.1379 142.407 23.0194C142.164 22.7824 141.928 22.5441 141.686 22.3227C141.437 22.1087 141.195 21.8958 140.952 21.695C140.703 21.5015 140.46 21.3152 140.216 21.1374C139.979 20.956 139.73 20.8036 139.497 20.65C139.26 20.4988 139.037 20.3476 138.805 20.2254C138.58 20.1009 138.361 19.9799 138.155 19.8674C137.949 19.7537 137.742 19.6642 137.553 19.5735C137.171 19.3981 136.839 19.2457 136.553 19.1478C135.987 18.9385 135.66 18.8369 135.66 18.8369C135.66 18.8369 135.917 19.0728 136.37 19.4562C136.6 19.64 136.866 19.8844 137.177 20.1517C137.49 20.4117 137.826 20.7274 138.197 21.0612C138.383 21.2221 138.568 21.4047 138.759 21.5898C138.949 21.7785 139.16 21.955 139.35 22.1631C139.549 22.3626 139.75 22.5683 139.955 22.7787C140.134 22.9807 140.322 23.1779 140.512 23.3811C141.095 23.4706 141.642 23.5806 142.166 23.7197L142.396 23.7802L142.466 23.7971L142.508 23.8092L142.622 23.8395L142.765 23.877L142.854 23.9036L142.951 23.8745L143.141 23.8237L143.104 23.7754V23.7778H143.102Z" fill="#00665E"/>
<path d="M143.266 23.6411L143.278 23.6556L143.368 23.7657L143.541 23.7198C144.097 23.5722 144.68 23.4549 145.302 23.3642C145.483 23.1743 145.663 22.9892 145.832 22.7993C146.041 22.5913 146.245 22.3869 146.444 22.1897C146.635 21.9817 146.847 21.8075 147.041 21.6212C147.233 21.4374 147.418 21.2572 147.607 21.0963C147.978 20.7649 148.318 20.4529 148.632 20.1952C148.944 19.9303 149.213 19.6884 149.444 19.5058C149.902 19.1272 150.16 18.8926 150.16 18.8926C150.16 18.8926 149.831 18.9918 149.262 19.1962C148.976 19.2929 148.643 19.4417 148.261 19.6134C148.07 19.703 147.863 19.79 147.656 19.9025C147.448 20.015 147.232 20.1323 147.001 20.2557C146.771 20.3767 146.545 20.5242 146.308 20.6742C146.072 20.8266 145.821 20.9766 145.581 21.1556C145.34 21.331 145.093 21.5148 144.843 21.7071C144.597 21.9043 144.354 22.1171 144.104 22.3288C143.858 22.5477 143.622 22.7848 143.377 23.0194C143.261 23.1368 143.145 23.2601 143.03 23.3835L143.172 23.5432L143.263 23.6423H143.266V23.6411Z" fill="#00665E"/>
<path d="M146.769 32.7332C146.748 32.2095 146.68 31.6447 146.584 31.0484C146.477 30.4557 146.334 29.8316 146.135 29.2014C145.976 28.7104 145.794 28.2096 145.578 27.7174L144.612 27.2541C144.485 27.1997 144.362 27.144 144.234 27.0896C144.023 26.9953 143.805 26.8997 143.59 26.8175L143.277 26.6941L143.036 26.5973L142.953 26.5635L143.003 26.6469C143.134 26.8453 143.262 27.0424 143.376 27.2493C143.452 27.3884 143.537 27.5238 143.618 27.6605C143.694 27.7996 143.768 27.9399 143.844 28.0778C143.998 28.3536 144.127 28.639 144.271 28.9136C144.403 29.1942 144.531 29.4724 144.653 29.7481C144.894 30.3033 145.102 30.85 145.287 31.3761C145.464 31.9059 145.626 32.4139 145.749 32.888C146.01 33.8387 146.169 34.6588 146.268 35.2405C146.311 35.532 146.349 35.7618 146.366 35.9227C146.385 36.0824 146.397 36.1682 146.397 36.1682C146.397 36.1682 146.425 36.0872 146.469 35.93C146.507 35.7739 146.575 35.5429 146.62 35.2454C146.673 34.9466 146.728 34.5814 146.754 34.1592C146.784 33.7359 146.792 33.2569 146.767 32.7332" fill="#00665E"/>
<path d="M142.812 26.5427L142.711 26.5826L142.43 26.6927L142.118 26.8161C141.901 26.8995 141.684 26.9963 141.472 27.0882C141.347 27.1426 141.22 27.1995 141.104 27.2479L140.168 27.6966C139.949 28.1864 139.764 28.6823 139.603 29.1698C139.398 29.7975 139.25 30.4204 139.14 31.0131C139.037 31.607 138.965 32.1718 138.94 32.6967C138.911 33.2204 138.915 33.6994 138.944 34.1215C138.965 34.5437 139.019 34.9113 139.067 35.2089C139.11 35.5088 139.175 35.7399 139.211 35.8959C139.255 36.0531 139.284 36.1342 139.284 36.1342C139.284 36.1342 139.295 36.0483 139.314 35.8898C139.335 35.7314 139.373 35.5004 139.419 35.2089C139.523 34.6283 139.688 33.8107 139.954 32.86C140.082 32.3847 140.25 31.8803 140.432 31.353C140.62 30.8256 140.835 30.2801 141.078 29.7286C141.202 29.4528 141.333 29.1758 141.466 28.8964C141.611 28.6231 141.744 28.3401 141.9 28.0655C141.976 27.9288 142.053 27.7885 142.131 27.6506C142.213 27.5152 142.296 27.3785 142.375 27.2406C142.492 27.0374 142.62 26.8415 142.749 26.6443L142.813 26.5476V26.5415H142.812V26.5427Z" fill="#00665E"/>
<path d="M142.358 23.9918L142.243 23.9603L142.111 23.9276C141.652 23.8043 141.193 23.7111 140.732 23.6349L140.568 23.6071L140.403 23.5805C140.191 23.5503 139.981 23.5213 139.772 23.4983C139.106 23.4197 138.456 23.3906 137.835 23.3906L137.559 23.393C136.857 23.4148 136.194 23.4632 135.589 23.5587C134.986 23.647 134.439 23.7619 133.961 23.8914C133.485 24.0147 133.077 24.1623 132.747 24.2857C132.417 24.4054 132.166 24.5336 131.997 24.6122C131.828 24.6957 131.742 24.7477 131.742 24.7477C131.742 24.7477 131.842 24.7404 132.027 24.7259C132.212 24.7102 132.487 24.7017 132.83 24.6884C133.046 24.6836 133.289 24.68 133.557 24.68C134.146 24.68 134.853 24.6981 135.638 24.7574C136.21 24.7937 136.825 24.8674 137.472 24.9521C138.106 25.0452 138.767 25.1601 139.444 25.3077C139.64 25.2025 139.839 25.0985 140.046 24.9969C140.173 24.94 140.3 24.8807 140.428 24.8227C140.669 24.7114 140.921 24.5965 141.178 24.4949L141.183 24.4925L141.284 24.455L141.389 24.4151L141.502 24.3715C141.691 24.299 141.887 24.2264 142.082 24.1587L142.272 24.0934L142.348 24.0667L142.463 24.0292L142.469 24.0232L142.355 23.993H142.358V23.9918Z" fill="#85AF9A"/>
<path d="M153.413 32.2238C153.235 31.9177 152.989 31.573 152.699 31.1751C152.556 30.9779 152.409 30.7614 152.232 30.551C152.054 30.3405 151.87 30.1168 151.674 29.887C151.485 29.6511 151.262 29.4261 151.037 29.1891C150.806 28.9556 150.58 28.7053 150.32 28.473C150.063 28.2372 149.796 27.9977 149.519 27.7558C149.235 27.5224 148.936 27.2938 148.636 27.0567C148.329 26.8281 148.004 26.6128 147.679 26.3878C147.35 26.1701 147.003 25.9681 146.657 25.7613C146.517 25.6851 146.374 25.6089 146.234 25.5327C145.899 25.6089 145.562 25.6912 145.252 25.7674C145.127 25.8049 145 25.8411 144.872 25.8738L144.854 25.8798L144.766 25.9052L144.658 25.9343C144.507 25.9766 144.356 26.0201 144.203 26.0697L143.682 26.2342C143.496 26.3032 143.326 26.3612 143.168 26.4169C143.334 26.4834 143.499 26.5511 143.667 26.6164C144.015 26.7507 144.353 26.9104 144.696 27.0555C144.946 27.174 145.193 27.2913 145.438 27.4111L145.589 27.4849L145.699 27.5381L145.741 27.5599C146.055 27.7244 146.365 27.8888 146.672 28.0521C146.986 28.2336 147.3 28.4114 147.606 28.5879C147.908 28.773 148.201 28.9629 148.496 29.1371C148.783 29.327 149.063 29.5132 149.335 29.6947C149.617 29.8664 149.865 30.0684 150.121 30.2426C150.378 30.4204 150.628 30.5909 150.853 30.7699C151.316 31.1183 151.752 31.4327 152.121 31.7327C152.496 32.0266 152.833 32.2782 153.097 32.5007C153.634 32.9362 153.963 33.1756 153.963 33.1756C153.963 33.1756 153.774 32.8237 153.41 32.2213" fill="#85AF9A"/>
<path d="M153.71 24.61C153.54 24.5314 153.29 24.4044 152.958 24.2835C152.629 24.1589 152.221 24.0138 151.742 23.8892C151.267 23.7598 150.719 23.6449 150.115 23.5554C149.512 23.461 148.85 23.4138 148.148 23.3921L147.872 23.3896C147.25 23.3896 146.599 23.4187 145.934 23.4973C145.759 23.5166 145.583 23.5396 145.407 23.5662L145.24 23.5916L145.074 23.6182C144.584 23.6981 144.088 23.7973 143.595 23.9267L143.516 23.9484L143.403 23.9775L143.29 24.0089L143.227 24.0259L143.033 24.0754L143.005 24.0827L142.854 24.1299C142.71 24.1758 142.564 24.2206 142.419 24.269L142.215 24.3355L142.026 24.402L141.834 24.4722L141.53 24.5883L141.425 24.6282L141.32 24.6669L141.259 24.6899C140.876 24.8423 140.506 25.0249 140.132 25.1918C140.006 25.2535 139.887 25.3188 139.762 25.3817L139.618 25.4555L139.474 25.5317C139.333 25.6079 139.192 25.6841 139.053 25.7603C138.702 25.9671 138.358 26.1691 138.029 26.3868C137.702 26.6106 137.379 26.8271 137.072 27.0545C136.771 27.294 136.473 27.5201 136.189 27.7548C135.913 27.9955 135.646 28.235 135.388 28.472C135.128 28.7043 134.9 28.9546 134.67 29.1893C134.445 29.4263 134.222 29.6501 134.033 29.886C133.838 30.1182 133.653 30.3407 133.475 30.5524C133.301 30.7616 133.152 30.9781 133.004 31.1753C132.719 31.5732 132.472 31.9204 132.296 32.2252C131.932 32.8263 131.742 33.1783 131.742 33.1783C131.742 33.1783 132.068 32.9376 132.608 32.5033C132.871 32.2808 133.21 32.0292 133.584 31.7341C133.95 31.4341 134.387 31.1197 134.851 30.7713C135.078 30.5911 135.328 30.4218 135.583 30.244C135.841 30.0686 136.087 29.869 136.369 29.6961C136.643 29.5146 136.922 29.3284 137.208 29.1397C137.504 28.9655 137.798 28.7756 138.099 28.5894C138.407 28.414 138.719 28.2362 139.034 28.0547C139.354 27.8854 139.679 27.7137 140.004 27.5419H140.005L140.155 27.4681L140.309 27.3944C140.542 27.2819 140.776 27.1718 141.009 27.0581C141.353 26.9142 141.69 26.7545 142.038 26.6203C142.208 26.5562 142.373 26.4872 142.54 26.4207L142.587 26.4013L142.688 26.3638L142.693 26.3614L142.791 26.3239L142.851 26.3022L143.017 26.2453L143.085 26.2223L143.184 26.1873L143.358 26.1244L143.608 26.0349C143.786 25.9792 143.961 25.9248 144.138 25.8692C144.27 25.8256 144.405 25.7881 144.538 25.7494L144.644 25.718L144.751 25.6877C144.895 25.6478 145.043 25.6079 145.185 25.5644C145.439 25.5027 145.69 25.4422 145.943 25.3829L146.101 25.3454L146.229 25.314L146.261 25.3079C146.937 25.1604 147.6 25.0431 148.235 24.9523C148.877 24.8677 149.495 24.7939 150.067 24.7576C150.852 24.6983 151.56 24.6814 152.147 24.6814C152.414 24.6814 152.657 24.6838 152.873 24.6887C153.217 24.7032 153.489 24.7116 153.676 24.7262C153.863 24.7407 153.963 24.7479 153.963 24.7479C153.963 24.7479 153.876 24.6959 153.708 24.6113" fill="#85AF9A"/>
<path d="M144.37 40.1907H144.369V43.2471H141.297V40.1907L127.503 31.7446C127.503 31.9587 127.606 32.1607 127.777 32.2889L139.508 40.9406V46.4814C139.508 47.6969 140.163 48.8387 141.25 49.3854L141.275 49.3963L141.298 49.4096V46.797H144.37V49.4096L144.392 49.3963L144.417 49.3854C145.502 48.8387 146.159 47.6969 146.159 46.4814V40.9406L157.889 32.2889C158.061 32.1607 158.163 31.9587 158.163 31.7446L144.373 40.1907H144.37ZM141.297 44.245H144.369V45.7992H141.297V44.245Z" fill="#85AF9A"/>
</svg>
